<svg width="180" height="180" viewBox="0 0 180 180" fill="none" xmlns="http://www.w3.org/2000/svg">
<rect width="180" height="180" fill="white"/>
<path d="M79.7966 148.5C88.3795 148.5 95.3374 146.554 95.3374 144.154C95.3374 141.753 88.3795 139.807 79.7966 139.807C71.2136 139.807 64.2557 141.753 64.2557 144.154C64.2557 146.554 71.2136 148.5 79.7966 148.5Z" fill="black" stroke="black" stroke-width="0.288" stroke-miterlimit="10"/>
<path d="M96.0014 135.492C95.4182 136.206 93.9108 137.144 91.9537 137.481C89.9299 137.833 88.2363 137.341 87.5266 136.859L86.7676 135.099C87.9552 135.492 89.6874 135.826 91.7007 135.44C93.6192 135.071 95.0352 134.196 95.9242 133.493C95.9487 134.14 95.9733 134.762 96.0014 135.492Z" fill="white" stroke="black" stroke-width="0.288" stroke-miterlimit="10"/>
<path d="M94.5959 67.6615C96.5776 67.6299 98.5488 67.774 100.513 68.0515C102.677 68.3572 104.852 68.8526 106.795 69.8892C109.511 71.3368 111.669 73.8174 111.606 77.043C111.514 81.8988 106.152 86.3084 102.962 88.5045C98.085 91.8635 92.6353 94.2809 87.3648 96.621C81.75 99.1121 75.9455 101.688 70.9034 105.388C64.2556 110.268 54.3577 120.693 59.4209 128.809C60.352 130.303 62.2001 131.367 64.361 131.656C76.346 133.258 85.2988 124.438 93.1975 116.663C94.5362 115.345 95.8011 114.098 97.0871 112.893C104.35 106.069 110.095 105.518 112.227 105.598C115.147 105.707 117.705 106.941 119.824 109.256C124.139 113.971 124.539 121.881 124.395 126.178C124.177 132.689 121.777 138.201 117.638 141.705C113.798 144.955 108.159 146.943 103.057 146.943C102.372 146.943 101.697 146.908 101.036 146.834C95.8679 146.262 91.7287 142.463 90.7906 137.604C91.0049 137.597 91.2369 137.583 91.4794 137.555C91.7815 137.52 92.0591 137.471 92.3085 137.418C92.5545 138.486 93.2396 140.865 95.3689 142.766C96.9254 144.157 98.9458 145.085 101.202 145.334C106.388 145.91 112.6 143.988 116.662 140.556C120.47 137.334 122.68 132.211 122.884 126.132C123.021 122.067 122.659 114.597 118.707 110.278C116.869 108.272 114.669 107.204 112.168 107.109C112.041 107.106 111.915 107.102 111.788 107.102C106.075 107.102 100.348 111.898 98.1131 113.992C96.8411 115.187 95.5833 116.427 94.2516 117.738C86.107 125.76 76.8731 134.849 64.1573 133.152C61.515 132.801 59.3224 131.508 58.1383 129.611C55.5769 125.507 56.0372 120.479 59.4665 115.071C62.8502 109.737 67.966 105.672 70.0074 104.175C75.1795 100.377 81.0613 97.7699 86.7499 95.2436C91.9571 92.9352 97.3401 90.5459 102.101 87.2641C104.476 85.6268 110.014 81.3542 110.091 77.0184C110.165 73.0479 106.187 70.7535 102.758 69.9946C99.5782 69.2918 96.2754 69.0881 93.0148 69.3375C93.2994 69.067 93.591 68.7753 93.8826 68.4591C94.1321 68.1921 94.3675 67.9285 94.5889 67.6685L94.5959 67.6615Z" fill="white" stroke="black" stroke-width="0.288" stroke-miterlimit="10"/>
<path d="M96.7639 132.748C96.135 133.374 94.4239 134.916 91.7008 135.44C88.528 136.048 86.0544 134.874 85.313 134.488L68.9711 73.5962C71.6731 74.7803 74.6561 75.4338 77.7938 75.4338C83.2294 75.4338 88.2082 73.4662 92.0522 70.1985L96.7605 132.748H96.7639Z" fill="white" stroke="black" stroke-width="0.288" stroke-miterlimit="10"/>
<mask id="mask0_903_6753" style="mask-type:luminance" maskUnits="userSpaceOnUse" x="75" y="103" width="32" height="27">
<path d="M97.2312 108.451C94.329 108.451 91.3353 108.097 88.5455 109.073C84.7789 110.395 80.6187 113.346 78.0081 116.34C74.8212 119.997 74.1993 126.849 79.7297 128.701C83.2258 129.871 86.5217 129.326 89.7964 127.857C94.0128 125.967 99.097 123.564 102.663 120.556C106.23 117.548 108.229 111.333 105.548 106.972C103.25 103.237 99.8278 102 97.2277 108.448C94.3254 108.448 99.8278 102 97.2277 108.448L97.2312 108.451Z" fill="white"/>
</mask>
<g mask="url(#mask0_903_6753)">
<path d="M96.7638 132.748C96.1349 133.374 94.4238 134.916 91.7007 135.44C88.5279 136.048 86.0543 134.874 85.3129 134.488L68.9709 73.5962C71.6729 74.7803 74.656 75.4338 77.7937 75.4338C83.2293 75.4338 88.2081 73.4662 92.052 70.1985L96.7604 132.748H96.7638Z" fill="white" stroke="black" stroke-width="0.288" stroke-miterlimit="10"/>
<path d="M94.5959 67.6615C96.5776 67.6299 98.5488 67.774 100.513 68.0515C102.677 68.3572 104.852 68.8526 106.795 69.8892C109.511 71.3368 111.669 73.8174 111.606 77.043C111.514 81.8988 106.152 86.3084 102.962 88.5045C98.085 91.8635 92.6353 94.2809 87.3648 96.621C81.75 99.1121 75.9455 101.688 70.9034 105.388C64.2556 110.268 54.3577 120.693 59.4209 128.809C60.352 130.303 62.2001 131.367 64.361 131.656C76.346 133.258 85.2988 124.438 93.1975 116.663C94.5362 115.345 95.8011 114.098 97.0871 112.893C104.35 106.069 110.095 105.518 112.227 105.598C115.147 105.707 117.705 106.941 119.824 109.256C124.139 113.971 124.539 121.881 124.395 126.178C124.177 132.689 121.777 138.201 117.638 141.705C113.798 144.955 108.159 146.943 103.057 146.943C102.372 146.943 101.697 146.908 101.036 146.834C95.8679 146.262 91.7287 142.463 90.7906 137.604C91.0049 137.597 91.2369 137.583 91.4794 137.555C91.7815 137.52 92.0591 137.471 92.3085 137.418C92.5545 138.486 93.2396 140.865 95.3689 142.766C96.9254 144.157 98.9458 145.085 101.202 145.334C106.388 145.91 112.6 143.988 116.662 140.556C120.47 137.334 122.68 132.211 122.884 126.132C123.021 122.067 122.659 114.597 118.707 110.278C116.869 108.272 114.669 107.204 112.168 107.109C112.041 107.106 111.915 107.102 111.788 107.102C106.075 107.102 100.348 111.898 98.1131 113.992C96.8411 115.187 95.5833 116.427 94.2516 117.738C86.107 125.76 76.8731 134.849 64.1573 133.152C61.515 132.801 59.3224 131.508 58.1383 129.611C55.5769 125.507 56.0372 120.479 59.4665 115.071C62.8502 109.737 67.966 105.672 70.0074 104.175C75.1795 100.377 81.0613 97.7699 86.7499 95.2436C91.9571 92.9352 97.3401 90.5459 102.101 87.2641C104.476 85.6268 110.014 81.3542 110.091 77.0184C110.165 73.0479 106.187 70.7535 102.758 69.9946C99.5782 69.2918 96.2754 69.0881 93.0148 69.3375C93.2994 69.067 93.591 68.7753 93.8826 68.4591C94.1321 68.1921 94.3675 67.9285 94.5889 67.6685L94.5959 67.6615Z" fill="white" stroke="black" stroke-width="0.288" stroke-miterlimit="10"/>
</g>
<path d="M86.3335 83.1369C86.0826 81.4065 84.4765 80.2072 82.7462 80.4581C81.0159 80.709 79.8165 82.3151 80.0674 84.0454L81.3702 93.0307C81.6211 94.761 83.2272 95.9603 84.9575 95.7094C86.6879 95.4586 87.8872 93.8525 87.6363 92.1222L86.3335 83.1369Z" fill="white" stroke="black" stroke-width="0.288" stroke-miterlimit="10"/>
<path d="M77.7902 75.4302C89.9709 75.4302 99.8453 65.5558 99.8453 53.3751C99.8453 41.1944 89.9709 31.3199 77.7902 31.3199C65.6095 31.3199 55.7351 41.1944 55.7351 53.3751C55.7351 65.5558 65.6095 75.4302 77.7902 75.4302Z" fill="#FF676A" stroke="black" stroke-width="0.288" stroke-miterlimit="10"/>
<path d="M73.5738 75.0298C73.5738 75.0298 73.5563 75.0263 73.5422 75.0227C73.5177 75.0192 73.479 75.0122 73.4298 75.0016C73.4087 74.9981 73.3806 74.9911 73.349 74.9841C73.2576 74.9665 73.1452 74.9419 73.0047 74.9103C73.0047 74.9103 72.9941 74.9068 72.9871 74.9068C72.9379 74.8962 72.8887 74.8822 72.836 74.8716C72.6779 74.833 72.4952 74.7873 72.2914 74.7311C72.2914 74.7311 72.2914 74.7276 72.2843 74.7276C72.1473 74.6889 71.9997 74.6468 71.8451 74.6011C69.4102 73.923 67.1404 72.8443 65.1236 71.4283C64.6598 71.1015 64.2065 70.7572 63.7673 70.3953C63.7567 70.3882 63.7497 70.3812 63.7391 70.3742C60.4925 67.6862 58.0295 64.0883 56.74 59.9703C56.6873 59.8051 56.6416 59.6365 56.5924 59.4678C56.5924 59.4678 56.5924 59.4643 56.5889 59.4608C56.5854 59.4467 56.5784 59.4292 56.5749 59.4151C56.5713 59.387 56.5608 59.3519 56.5467 59.3027C56.4835 59.0813 56.4273 58.8565 56.371 58.6281C56.364 58.607 56.3606 58.5859 56.3535 58.5613C56.2973 58.3364 56.2481 58.108 56.2024 57.8761C56.1954 57.8586 56.1918 57.841 56.1883 57.8199C56.1426 57.6091 56.104 57.3948 56.0654 57.1805C56.0584 57.1453 56.0548 57.1067 56.0478 57.068C56.0092 56.8467 55.9775 56.6253 55.9459 56.4039C55.9108 56.1545 55.8826 55.905 55.8545 55.6555C55.8545 55.6485 55.8545 55.6415 55.851 55.6309C55.8264 55.3885 55.8089 55.1461 55.7913 54.9036C55.7737 54.6577 55.7597 54.4117 55.7526 54.1622V54.1236C55.7421 53.8776 55.7386 53.6246 55.7386 53.3752C55.7386 52.7041 55.7703 52.04 55.8265 51.3829C55.837 51.2564 55.851 51.13 55.8651 51.007C55.8862 50.7891 55.9143 50.5713 55.9459 50.3534C56.0091 49.8686 56.0935 49.3907 56.1918 48.9164C56.227 48.7407 56.2621 48.5685 56.3043 48.3963C56.3043 48.3753 56.3113 48.3542 56.3184 48.3331C56.3957 47.9993 56.4835 47.6655 56.5749 47.3387C56.624 47.1631 56.6767 46.9909 56.7294 46.8187C56.7857 46.6466 56.8419 46.4744 56.8981 46.3022C56.9543 46.13 57.0176 45.9544 57.0808 45.7822C57.2038 45.4484 57.3338 45.1181 57.4744 44.7913C57.6114 44.4611 57.7555 44.1343 57.9136 43.8146C57.9874 43.6635 58.0611 43.5159 58.1349 43.3683C58.1384 43.3578 58.1454 43.3472 58.1525 43.3367C58.2333 43.1786 58.3176 43.0205 58.4019 42.8624C58.4265 42.8097 58.4546 42.7569 58.4863 42.7078C58.6268 42.4477 58.7779 42.1913 58.9325 41.9418C59.0098 41.8118 59.0906 41.6853 59.1714 41.5588C59.3752 41.232 59.5931 40.9123 59.8179 40.5961C59.9058 40.4766 59.9936 40.3571 60.0779 40.2377C60.099 40.2096 60.1166 40.185 60.1412 40.1568C60.2395 40.0233 60.3415 39.8898 60.4434 39.7598C60.6577 39.4822 60.8826 39.2117 61.1145 38.9482C61.1145 38.9482 61.1145 38.9482 61.118 38.9411C61.2093 38.8392 61.2972 38.7373 61.3885 38.6389C61.4553 38.5616 61.5291 38.4808 61.6099 38.4C61.6802 38.3192 61.7539 38.2384 61.8312 38.1611C61.9507 38.0311 62.0737 37.9046 62.2002 37.7816C62.3232 37.6551 62.4497 37.5322 62.5797 37.4127C62.7027 37.2932 62.8256 37.1773 62.9521 37.0648C63.0856 36.9384 63.2227 36.8189 63.3632 36.6994C63.4757 36.6011 63.5916 36.5027 63.7111 36.4078C63.7392 36.3797 63.7673 36.3551 63.7954 36.3375C63.8797 36.2637 63.9676 36.1935 64.0554 36.1267C64.21 35.9967 64.3681 35.8737 64.5297 35.7543C64.7757 35.568 65.0287 35.3853 65.2887 35.2096C65.4187 35.1183 65.5487 35.0269 65.6822 34.9426C65.7173 34.918 65.756 34.8934 65.7946 34.8688C65.9809 34.7458 66.1706 34.6264 66.3604 34.5139C66.3955 34.4893 66.4341 34.4683 66.4728 34.4472C66.6344 34.3488 66.7996 34.2504 66.9647 34.1626C67.2036 34.022 67.446 33.892 67.692 33.7655C67.706 33.7585 67.7166 33.7515 67.7307 33.7444L67.7553 33.7339L68.1382 33.5406C67.9661 33.8112 51.9684 57.9429 73.5773 75.0298H73.5738Z" fill="black" stroke="black" stroke-width="0.288" stroke-linecap="round" stroke-linejoin="round"/>
<path d="M56.1356 57.746C61.7188 61.7551 70.1445 63.6033 78.6018 62.8549C87.0557 62.11 94.473 58.9371 99.8488 53.8845C100.232 54.0918 100.443 54.4537 100.446 54.8789C100.446 55.037 100.422 55.1916 100.379 55.3462C100.313 55.5957 100.221 55.8381 100.077 56.056C99.9192 56.2949 99.6978 56.4635 99.4765 56.6427C99.4624 56.6533 99.4448 56.6673 99.4307 56.6814C99.2269 56.8465 99.0232 57.0081 98.8158 57.1698C98.4012 57.493 97.9761 57.8058 97.5475 58.1079C97.1188 58.4101 96.6761 58.7087 96.2299 58.9969C95.7836 59.285 95.3233 59.5626 94.863 59.8331C94.3957 60.1037 93.9248 60.3637 93.447 60.6132C92.9656 60.8661 92.4773 61.1086 91.9853 61.337C91.4899 61.5689 90.9875 61.7902 90.4815 62.0045C89.972 62.2189 89.4555 62.4192 88.9355 62.6089C88.4155 62.7986 87.8814 62.9813 87.3509 63.1535C86.8133 63.3257 86.2721 63.4838 85.7275 63.6314C85.1794 63.7789 84.6243 63.9195 84.0691 64.0425C83.5139 64.1655 82.9447 64.2849 82.3755 64.3868C81.8063 64.4887 81.2266 64.58 80.6503 64.6609C80.0741 64.7417 79.4838 64.8084 78.897 64.8611C78.8443 64.8647 78.7916 64.8717 78.7389 64.8752C77.5865 64.9771 76.4269 65.0368 75.2709 65.0474C74.1466 65.0579 73.0187 65.0263 71.8979 64.9455C70.777 64.8646 69.7194 64.7417 68.6372 64.5695C67.5796 64.4009 66.5325 64.1865 65.4959 63.9265C64.477 63.67 63.4686 63.3678 62.4743 63.0165C61.4904 62.6721 60.5242 62.2821 59.5755 61.8464C59.0133 61.59 58.4582 61.3124 57.91 61.0242C57.636 60.8802 57.3654 60.7326 57.0949 60.5815C56.7646 60.3988 56.4518 60.2477 56.1848 59.9702C55.8615 59.6364 55.6226 59.2042 55.5734 58.7404C55.5418 58.4593 55.6121 58.1782 55.8124 57.9674C55.9002 57.8725 56.0127 57.7917 56.1356 57.746Z" fill="white" stroke="black" stroke-width="0.288" stroke-miterlimit="10"/>
<path d="M83.2539 85.8376C84.5191 85.8376 85.5448 84.812 85.5448 83.5467C85.5448 82.2815 84.5191 81.2559 83.2539 81.2559C81.9887 81.2559 80.963 82.2815 80.963 83.5467C80.963 84.812 81.9887 85.8376 83.2539 85.8376Z" fill="#54A6EC" stroke="black" stroke-width="0.288" stroke-miterlimit="10"/>
<path d="M95.6289 117.629C95.1932 118.054 94.754 118.486 94.3043 118.929C90.9979 122.186 87.5124 125.619 83.6861 128.434L83.412 127.404C85.9488 125.581 88.0992 123.644 90.5447 121.343C92.3261 119.667 93.9951 117.991 95.5411 116.473L95.6289 117.629Z" fill="black"/>
<path d="M74.0798 101.484L74.2731 103.132C74.6877 102.879 75.1128 102.626 75.552 102.373C75.8858 102.18 76.2196 101.993 76.5464 101.811C76.4129 101.312 76.2793 100.809 76.1423 100.31C75.8647 100.461 75.5837 100.62 75.2991 100.781C74.8844 101.017 74.4769 101.252 74.0798 101.487V101.484Z" fill="black"/>
<path d="M87.3369 73.2659C79.136 78.8034 69.6632 76.1716 69.6632 76.1716L68.9711 73.5961C71.6731 74.7802 74.6561 75.4338 77.7938 75.4338C81.2126 75.4338 84.4487 74.6538 87.3369 73.2659Z" fill="black"/>
<path d="M85.3551 84.4604C85.2321 85.648 84.2342 86.5721 83.015 86.5721C81.715 86.5721 80.6609 85.5215 80.6609 84.2214C80.6609 83.7401 80.8049 83.2938 81.0509 82.9214C80.9946 83.1182 80.963 83.329 80.963 83.5468C80.963 84.8117 81.989 85.8377 83.2539 85.8377C84.1956 85.8377 85.0037 85.272 85.3551 84.4604Z" fill="black"/>
<path d="M94.9017 134.203C94.9017 134.203 94.9017 134.206 94.8947 134.21C94.7682 134.343 92.6635 136.508 89.322 137.495C88.5209 137.358 87.892 137.109 87.5266 136.859L86.7711 135.102C86.7711 135.102 86.7782 135.106 86.7852 135.106C86.8871 135.145 87.393 135.327 88.1731 135.457C88.2995 135.482 88.4366 135.503 88.5772 135.52C88.6966 135.538 88.8231 135.552 88.9531 135.563C89.0374 135.573 89.1252 135.58 89.2131 135.584C89.2271 135.587 89.2412 135.587 89.2553 135.587C89.3572 135.594 89.4626 135.601 89.568 135.601C89.6136 135.605 89.6629 135.608 89.7086 135.608H89.8456C89.9545 135.608 90.0634 135.608 90.1793 135.605C90.2496 135.601 90.3199 135.601 90.3937 135.598C90.5097 135.591 90.6291 135.584 90.7486 135.573C90.7556 135.573 90.7662 135.57 90.7767 135.57C90.9243 135.556 91.0788 135.542 91.2334 135.517C91.388 135.496 91.5427 135.471 91.7008 135.44C92.4703 135.299 93.289 135.046 94.1182 134.632C94.2131 134.589 94.3114 134.54 94.4063 134.487C94.4695 134.456 94.5328 134.421 94.596 134.382C94.6452 134.354 94.6979 134.326 94.7471 134.294C94.7998 134.266 94.849 134.235 94.9017 134.203Z" fill="black" stroke="black" stroke-width="0.288" stroke-miterlimit="10"/>
</svg>
