<svg width="180" height="180" viewBox="0 0 180 180" fill="none" xmlns="http://www.w3.org/2000/svg">
<rect width="180" height="180" fill="white"/>
<path d="M92.1946 42.6288C92.1946 42.6288 100.163 42.3802 106.041 41.7535L103.097 47.6459L108.303 53.1321C108.303 53.1321 99.2352 54.7426 94.0606 53.8918L92.1946 42.6288Z" fill="#00DAA1"/>
<path d="M97.6668 54.2805C96.3644 54.2805 95.1145 54.2104 94.0362 54.0319C93.9767 54.0214 93.9276 53.9724 93.9171 53.9128L92.0511 42.6499C92.044 42.6078 92.0545 42.5658 92.0825 42.5343C92.1106 42.5028 92.1491 42.4818 92.1911 42.4818C92.2716 42.4818 100.223 42.2262 106.024 41.6065C106.076 41.5995 106.129 41.624 106.157 41.6661C106.188 41.7081 106.192 41.7676 106.167 41.8131L103.269 47.6144L108.405 53.0271C108.443 53.0656 108.454 53.1216 108.436 53.1706C108.419 53.2196 108.377 53.2581 108.324 53.2686C108.251 53.2826 102.579 54.277 97.6633 54.277L97.6668 54.2805ZM94.1867 53.7658C98.7941 54.487 106.49 53.2862 108.012 53.0341L102.992 47.7474C102.95 47.7019 102.939 47.6389 102.967 47.5829L105.793 41.9251C100.475 42.4783 93.518 42.7304 92.3627 42.7689L94.1832 53.7658H94.1867Z" fill="black"/>
<path d="M84.178 39.0261L84.1746 39.0267C83.753 39.0966 83.4679 39.495 83.5378 39.9165L87.5808 64.3119C87.6506 64.7335 88.049 65.0186 88.4706 64.9488L88.474 64.9482C88.8956 64.8783 89.1807 64.4799 89.1109 64.0584L85.0678 39.6629C84.998 39.2414 84.5996 38.9563 84.178 39.0261Z" fill="white"/>
<path d="M88.3433 65.1128C88.1542 65.1128 87.9687 65.0533 87.8111 64.9413C87.6116 64.7977 87.4785 64.5877 87.44 64.3426L83.3998 39.9505C83.3613 39.709 83.4173 39.4639 83.5608 39.2643C83.7043 39.0648 83.9144 38.9317 84.1595 38.8932C84.4011 38.8512 84.6462 38.9107 84.8457 39.0543C85.0453 39.1978 85.1783 39.4114 85.2168 39.6529L89.2571 64.045C89.2991 64.2866 89.2396 64.5316 89.096 64.7312C88.9525 64.9308 88.7424 65.0638 88.4973 65.1023C88.4448 65.1093 88.3958 65.1163 88.3433 65.1163V65.1128ZM84.303 39.1698C84.268 39.1698 84.233 39.1698 84.198 39.1768C84.0335 39.2048 83.8864 39.2958 83.7884 39.4324C83.6904 39.5689 83.6518 39.737 83.6798 39.9015L87.7201 64.2936C87.7481 64.4581 87.8391 64.6052 87.9757 64.7032C88.1122 64.8012 88.2803 64.8397 88.4448 64.8117C88.6094 64.7837 88.7564 64.6927 88.8544 64.5562C88.9525 64.4196 88.991 64.2516 88.963 64.087L84.9227 39.695C84.8947 39.5304 84.8037 39.3834 84.6672 39.2853C84.5586 39.2083 84.4326 39.1663 84.303 39.1663V39.1698Z" fill="black"/>
<path d="M98.9166 51.8963C94.9744 51.9803 89.9573 51.9173 86.9884 51.2486L85.1223 39.9856C85.1223 39.9856 90.8711 40.5003 96.6409 40.5003C96.956 40.5003 97.2221 40.7068 97.2641 40.9834L98.9201 51.8928L98.9166 51.8963Z" fill="#00DAA1"/>
<path d="M96.2873 52.0712C92.9893 52.0712 89.3202 51.9242 86.9534 51.392C86.8974 51.378 86.8519 51.3325 86.8414 51.2765L84.9753 40.0135C84.9683 39.968 84.9823 39.9259 85.0103 39.8909C85.0418 39.8594 85.0838 39.8419 85.1293 39.8454C85.1853 39.8489 90.9271 40.3601 96.6164 40.3601H96.6339C97.019 40.3601 97.3481 40.6227 97.4006 40.9658L99.0566 51.8751C99.0637 51.9172 99.0497 51.9592 99.0252 51.9907C98.9971 52.0222 98.9586 52.0397 98.9166 52.0432C98.0938 52.0607 97.2011 52.0712 96.2838 52.0712H96.2873ZM87.1145 51.1329C90.0799 51.7771 95.0339 51.8296 98.7486 51.7596L97.117 41.0113C97.0855 40.8012 96.8755 40.6472 96.6199 40.6507C91.4943 40.6507 86.3232 40.2375 85.2904 40.1535L87.1109 51.1364L87.1145 51.1329Z" fill="black"/>
<path d="M98.9167 51.7527L93.7316 51.7667C93.6896 51.7667 93.6475 51.7842 93.623 51.8192C93.5985 51.8542 93.5845 51.8927 93.5915 51.9347L93.8926 53.7553C93.8996 53.7973 93.9241 53.8358 93.9626 53.8568C93.9836 53.8708 94.0082 53.8778 94.0362 53.8778C94.0537 53.8778 94.0712 53.8778 94.0887 53.8673L98.9727 52.0328C99.0392 52.0083 99.0777 51.9417 99.0637 51.8717C99.0497 51.8017 98.9902 51.7527 98.9202 51.7527H98.9167Z" fill="black"/>
<path d="M126.075 89.3509C125.693 88.9658 125.36 88.5177 125.014 88.0941C123.575 86.3365 121.663 84.8555 119.433 84.4179C117.203 83.9803 114.65 84.775 113.443 86.7006C113.005 87.3973 112.515 88.3461 111.699 88.2236C111.111 88.1361 110.789 87.5129 110.341 87.1243C109.5 86.403 108.187 86.5501 107.225 87.0997C106.262 87.6494 105.537 88.5212 104.707 89.2564C103.881 89.9951 101.353 90.7059 100.247 90.6148C99.5048 90.6533 98.7591 90.1562 98.0659 90.5763C96.9665 91.2415 96.914 92.5964 96.6934 93.7063C96.6514 93.9164 96.5884 94.1649 96.4239 94.3155C96.2453 94.48 95.9757 94.494 95.7517 94.5641C95.4821 94.6446 95.216 94.7671 94.9639 94.8862C94.6873 95.0157 94.3407 95.1137 94.1167 95.3238C94.0256 95.4078 93.9626 95.4708 93.9486 95.6144C96.5954 95.8665 99.3053 95.7124 101.966 95.7194C103.671 95.7229 104.585 95.6844 106.286 95.6214C117.486 95.3973 128.693 95.5199 139.886 95.9925C140.331 96.01 140.793 95.7054 140.8 95.2608C140.811 94.452 137.205 94.5886 136.665 93.0271C136.406 92.2813 136.284 91.4586 135.797 90.8354C134.796 89.547 132.828 89.701 131.232 90.0547C129.81 90.3698 128.242 90.7269 126.96 90.0337C126.628 89.8551 126.341 89.617 126.075 89.3474V89.3509Z" fill="white"/>
<path d="M139.921 96.1358C139.921 96.1358 139.89 96.1358 139.876 96.1358C128.732 95.6667 117.43 95.5407 106.286 95.7647L105.894 95.7787C104.424 95.8313 103.531 95.8558 101.963 95.8628C101.21 95.8558 100.454 95.8733 99.6973 95.8838C97.7998 95.9118 95.8392 95.9398 93.9311 95.7577L93.791 95.7437L93.805 95.6037C93.8225 95.4041 93.9276 95.3061 94.0186 95.2221C94.2042 95.0505 94.4457 94.949 94.6803 94.8545C94.7573 94.8229 94.8344 94.7914 94.9044 94.7599C95.1635 94.6409 95.4365 94.5183 95.7096 94.4343C95.7726 94.4133 95.8392 94.3993 95.9092 94.3853C96.0702 94.3468 96.2243 94.3118 96.3293 94.2172C96.4588 94.1017 96.5114 93.8917 96.5534 93.6851C96.5884 93.5135 96.6164 93.3385 96.6479 93.1599C96.816 92.1761 97.005 91.0593 97.9923 90.4606C98.4755 90.1665 98.9726 90.275 99.4488 90.3766C99.7219 90.4361 99.9844 90.4886 100.24 90.4781C101.297 90.5691 103.811 89.8724 104.613 89.1582C104.854 88.9411 105.089 88.7135 105.324 88.486C105.88 87.9433 106.458 87.3796 107.151 86.984C108.117 86.4308 109.504 86.2313 110.428 87.0225C110.575 87.1486 110.712 87.2991 110.838 87.4462C111.107 87.7507 111.363 88.0343 111.717 88.0869C112.357 88.1779 112.805 87.4637 113.194 86.83L113.32 86.6269C114.489 84.7643 117.01 83.8015 119.457 84.2812C122.031 84.7853 123.956 86.5849 125.119 88.0063C125.206 88.1149 125.294 88.2234 125.381 88.3319C125.63 88.647 125.892 88.9691 126.169 89.2527C126.456 89.5433 126.733 89.7569 127.02 89.9109C128.245 90.5726 129.789 90.2295 131.151 89.9249L131.193 89.9144C133.525 89.3963 135.062 89.6693 135.899 90.7477C136.27 91.2238 136.438 91.805 136.599 92.3687C136.658 92.5752 136.718 92.7783 136.788 92.9814C137.071 93.8006 138.342 94.1297 139.361 94.3958C140.24 94.6234 140.937 94.8054 140.93 95.2641C140.93 95.4776 140.832 95.6842 140.664 95.8418C140.467 96.0273 140.191 96.1323 139.914 96.1323L139.921 96.1358ZM117.066 95.3761C124.681 95.3761 132.32 95.5372 139.886 95.8558C140.096 95.8628 140.327 95.7822 140.478 95.6422C140.559 95.5687 140.653 95.4391 140.653 95.2641C140.657 95.026 139.935 94.8369 139.295 94.6724C138.209 94.3888 136.858 94.0387 136.525 93.0794C136.455 92.8763 136.392 92.6628 136.333 92.4527C136.172 91.889 136.018 91.3604 135.678 90.9262C134.915 89.9424 133.465 89.7044 131.256 90.1945L131.214 90.205C129.803 90.5166 128.203 90.8737 126.887 90.163C126.575 89.9949 126.274 89.7639 125.969 89.4523C125.679 89.1582 125.416 88.8291 125.161 88.507C125.073 88.3984 124.989 88.2899 124.902 88.1849C123.767 86.802 121.894 85.0479 119.401 84.5578C117.07 84.0991 114.665 85.0129 113.555 86.7774L113.429 86.977C113.016 87.6492 112.497 88.4895 111.671 88.3634C111.219 88.2969 110.918 87.9573 110.624 87.6317C110.502 87.4952 110.376 87.3516 110.239 87.2361C109.423 86.5359 108.135 86.7389 107.284 87.2291C106.623 87.6072 106.059 88.1569 105.513 88.689C105.275 88.9201 105.037 89.1512 104.791 89.3718C103.93 90.1385 101.336 90.8527 100.226 90.7617C99.9494 90.7757 99.6624 90.7162 99.3823 90.6566C98.9376 90.5621 98.5175 90.4711 98.1289 90.7057C97.2536 91.2343 97.0821 92.2391 96.9175 93.2124C96.886 93.3945 96.8545 93.5731 96.823 93.7446C96.774 93.9967 96.7004 94.2558 96.5114 94.4273C96.3538 94.5744 96.1473 94.6199 95.9652 94.6619C95.9057 94.6759 95.8427 94.6899 95.7867 94.7074C95.5276 94.7844 95.265 94.907 95.0164 95.0225C94.9429 95.0575 94.8624 95.089 94.7818 95.124C94.5718 95.2116 94.3547 95.2991 94.2042 95.4356C94.1762 95.4601 94.1551 95.4811 94.1376 95.5021C95.9722 95.6632 97.8593 95.6352 99.6904 95.6107C100.45 95.6002 101.206 95.5932 101.959 95.5897C103.531 95.5967 104.41 95.5617 105.877 95.5057L106.272 95.4916C109.854 95.4181 113.457 95.3831 117.059 95.3831L117.066 95.3761Z" fill="black"/>
<path d="M153.331 136.826L134.285 108.523C133.871 107.907 133.206 107.532 132.468 107.49C131.732 107.448 131.029 107.753 130.549 108.323L109.28 133.619C109.252 133.654 109.238 133.699 109.248 133.741C109.259 133.787 109.287 133.822 109.329 133.843C112.529 135.334 116.005 136.076 119.016 136.657C122.454 137.319 126.208 137.645 130.833 137.683C131.676 137.69 132.52 137.694 133.367 137.694C139.97 137.694 146.64 137.48 153.222 137.053C153.274 137.053 153.32 137.018 153.341 136.973C153.366 136.927 153.359 136.871 153.331 136.829V136.826Z" fill="black"/>
<path d="M135.177 139.007C110.68 141.45 74.5805 140.708 54.0957 139.917C63.111 115.08 78.7643 86.1229 87.7061 61.5102C88.809 61.2757 90.0343 61.7273 90.6785 62.8371L135.181 139.003L135.177 139.007Z" fill="#54AFF5"/>
<path d="M92.0056 140.817C76.4257 140.817 62.1343 140.369 54.0923 140.057C54.0468 140.057 54.0048 140.033 53.9803 139.994C53.9558 139.956 53.9488 139.91 53.9663 139.868C58.4897 127.411 64.7741 113.708 70.8555 100.46C76.8844 87.3167 83.1198 73.729 87.5767 61.4612C87.5942 61.4157 87.6327 61.3807 87.6782 61.3737C88.9106 61.1146 90.164 61.6748 90.8012 62.7671L135.303 138.933C135.328 138.975 135.328 139.024 135.307 139.066C135.286 139.108 135.244 139.136 135.195 139.143C122.416 140.418 106.644 140.813 92.0056 140.813V140.817ZM54.2954 139.787C69.9697 140.39 108.695 141.482 134.95 138.891L90.5596 62.9106C89.9994 61.9443 88.9001 61.4367 87.8148 61.6362C83.3579 73.8935 77.133 87.4602 71.1111 100.582C65.0647 113.764 58.8118 127.39 54.2954 139.787Z" fill="black"/>
<path d="M87.8147 61.4157C87.7797 61.3772 87.7307 61.3562 87.6782 61.3667C86.8974 61.5138 86.2287 61.9724 85.7911 62.6586L37.077 138.926C37.049 138.968 37.0455 139.021 37.07 139.066C37.0945 139.112 37.1365 139.143 37.1855 139.147C37.2241 139.15 41.0472 139.553 54.0922 140.061C54.0922 140.061 54.0958 140.061 54.0993 140.061C54.1588 140.061 54.2148 140.022 54.2358 139.966C58.7557 127.52 65.0366 113.823 71.1145 100.579C77.1469 87.4323 83.3858 73.8376 87.8427 61.5593C87.8602 61.5103 87.8497 61.4577 87.8182 61.4157H87.8147Z" fill="black"/>
<path d="M86.5752 109.727C66.6821 110.802 46.7364 110.928 26.8327 110.098C26.5772 109.072 27.1478 107.847 28.1386 107.479C29.1294 107.112 30.2253 107.245 31.2721 107.381C31.1076 106.398 30.9395 105.417 30.775 104.434C31.3666 101.118 34.9273 104.462 36.0896 102.935C36.6043 102.259 36.8319 101.367 37.4936 100.831C38.4599 100.047 39.9303 100.362 41.0472 99.8086C42.6857 98.9964 42.9097 96.7802 43.9216 95.2572C45.1539 93.3981 47.6712 92.6524 49.8489 93.1355C52.0265 93.6152 53.8646 95.1382 55.1635 96.9517C56.4589 98.7688 57.2817 100.873 58.0554 102.967C59.0672 102.967 59.7534 102.207 60.5307 101.559C62.4423 99.9662 64.5744 98.5867 66.9377 97.813C69.3044 97.0393 71.9267 96.9027 74.2689 97.7535C75.2702 98.1176 76.2506 98.6953 76.7932 99.6126C77.721 101.178 77.1504 103.303 78.0676 104.875C79.279 104.472 80.7144 104.875 81.5442 105.844C81.8313 106.184 82.0519 106.583 82.3915 106.867C82.8641 107.266 83.5013 107.392 84.1105 107.483C84.7197 107.574 85.3569 107.655 85.8785 107.987C86.4002 108.32 86.8098 109.16 86.5823 109.731L86.5752 109.727Z" fill="white"/>
<path d="M52.7793 110.777C44.1071 110.777 35.442 110.599 26.8258 110.238C26.7628 110.238 26.7103 110.193 26.6963 110.133C26.4162 109.009 27.0534 107.735 28.0862 107.35C29.0665 106.986 30.1343 107.094 31.0971 107.22L30.6315 104.458C30.6315 104.458 30.6315 104.426 30.6315 104.409C30.7541 103.726 31.0061 103.268 31.3982 103.009C32.0424 102.585 32.9282 102.795 33.786 103.002C34.6892 103.215 35.54 103.418 35.9741 102.851C36.1667 102.595 36.3243 102.298 36.4783 102.011C36.7234 101.545 36.979 101.065 37.3991 100.726C37.9733 100.26 38.7085 100.162 39.4192 100.068C39.9549 99.9941 40.5081 99.9205 40.9807 99.6895C41.9995 99.1853 42.4477 98.1105 42.9203 96.9726C43.1759 96.3599 43.4385 95.7298 43.7991 95.1836C45 93.3735 47.4997 92.4772 49.8735 93.0024C51.8866 93.447 53.8052 94.823 55.2721 96.8746C56.543 98.6532 57.3588 100.701 58.1465 102.826C58.8993 102.784 59.4699 102.287 60.0721 101.762C60.1912 101.657 60.3102 101.552 60.4362 101.451C62.6454 99.609 64.7566 98.3766 66.8922 97.6764C69.462 96.8361 72.0983 96.8151 74.3145 97.6168C75.5504 98.065 76.4257 98.7092 76.9123 99.5354C77.392 100.348 77.483 101.303 77.574 102.231C77.6546 103.082 77.7386 103.964 78.1342 104.7C79.3771 104.335 80.809 104.756 81.6493 105.746C81.7543 105.869 81.8524 106.002 81.9469 106.131C82.1149 106.363 82.276 106.58 82.4791 106.755C82.9272 107.133 83.5399 107.252 84.1281 107.339L84.2296 107.353C84.8213 107.441 85.434 107.532 85.9486 107.861C86.5123 108.218 86.9639 109.132 86.7048 109.776C86.6838 109.825 86.6383 109.86 86.5823 109.864C75.3718 110.469 64.0703 110.774 52.7793 110.774V110.777ZM26.9449 109.965C46.698 110.784 66.7242 110.658 86.4703 109.594C86.6068 109.086 86.2322 108.383 85.7946 108.103C85.3289 107.805 84.7478 107.717 84.1841 107.633L84.0825 107.619C83.4523 107.525 82.7976 107.395 82.2935 106.972C82.0624 106.776 81.8874 106.534 81.7158 106.303C81.6248 106.177 81.5303 106.051 81.4322 105.932C80.6375 104.997 79.2686 104.619 78.1097 105.004C78.0467 105.025 77.9766 105.001 77.9451 104.941C77.4725 104.132 77.3815 103.18 77.2939 102.259C77.2029 101.324 77.1189 100.439 76.6708 99.679C76.2156 98.9087 75.3929 98.3066 74.22 97.8794C72.0633 97.0987 69.49 97.1197 66.9798 97.9424C64.8826 98.6286 62.7994 99.847 60.6183 101.664C60.4957 101.766 60.3802 101.867 60.2612 101.972C59.6205 102.529 58.9623 103.107 58.0555 103.107C57.996 103.107 57.9435 103.072 57.9225 103.016C57.1312 100.876 56.3155 98.8107 55.0481 97.0357C53.6231 95.0365 51.764 93.7026 49.8174 93.272C47.5557 92.7713 45.175 93.6221 44.0371 95.3376C43.6905 95.8593 43.4315 96.479 43.1829 97.0777C42.7102 98.212 42.2201 99.3849 41.1067 99.9381C40.5956 100.19 40.0179 100.271 39.4577 100.344C38.754 100.439 38.0888 100.53 37.5777 100.943C37.1995 101.251 36.9684 101.682 36.7269 102.144C36.5693 102.441 36.4083 102.749 36.1982 103.023C35.6555 103.737 34.6718 103.502 33.723 103.275C32.9247 103.086 32.0984 102.889 31.5558 103.247C31.2337 103.457 31.0236 103.849 30.9151 104.437L31.4087 107.36C31.4157 107.402 31.4017 107.448 31.3702 107.479C31.3387 107.511 31.2932 107.525 31.2512 107.521C30.2744 107.392 29.1645 107.248 28.1842 107.612C27.3229 107.931 26.7628 109.013 26.9449 109.962V109.965Z" fill="black"/>
<path d="M102.6 83.2345C97.2501 78.0844 95.6992 80.2166 91.8375 83.4166C87.9758 86.6166 84.5517 79.5549 78.1517 86.2104C71.7518 92.866 70.922 86.2104 70.922 86.2104L85.8716 62.8127C87.0305 60.9991 89.6983 61.0552 90.7801 62.9142L102.603 83.238L102.6 83.2345Z" fill="white"/>
<path d="M73.4287 89.3088C73.1836 89.3088 72.9526 89.2738 72.732 89.2003C71.1005 88.6576 70.7924 86.3259 70.7784 86.2279L70.7714 86.1789L70.7994 86.1368L85.749 62.7391C86.3197 61.8463 87.279 61.3352 88.3538 61.3492C89.4147 61.3702 90.3634 61.9303 90.8956 62.8476L103.223 84.0362L102.502 83.3395C97.6597 78.6795 96.0317 80.0555 92.7897 82.8003C92.5131 83.0349 92.226 83.2764 91.9249 83.5285C90.2619 84.908 88.6549 84.4423 86.9569 83.9487C84.6006 83.2624 81.9293 82.4887 78.2497 86.3119C76.3311 88.3075 74.7136 89.3123 73.4287 89.3123V89.3088ZM71.062 86.2419C71.1145 86.5745 71.4751 88.4896 72.8195 88.9342C74.0869 89.3543 75.8444 88.4055 78.0466 86.1123C81.8418 82.1666 84.6007 82.9649 87.0339 83.6756C88.7285 84.1692 90.1954 84.5929 91.7429 83.3115C92.044 83.0629 92.331 82.8213 92.6041 82.5867C95.7131 79.9539 97.4952 78.4485 101.998 82.4922L90.647 62.9877C90.1639 62.1579 89.3026 61.6503 88.3398 61.6292C88.3188 61.6292 88.3013 61.6292 88.2803 61.6292C87.342 61.6292 86.4842 62.0984 85.9766 62.8931L71.055 86.2489L71.062 86.2419Z" fill="black"/>
<path d="M92.7267 82.6566C92.6742 82.6006 92.5867 82.5971 92.5307 82.6461C92.2786 82.8597 92.016 83.0803 91.7429 83.3078C90.1954 84.5892 88.732 84.1656 87.034 83.6719C84.5972 82.9647 81.8419 82.163 78.0397 86.1122C76.6567 87.5511 75.4314 88.4684 74.3985 88.8395C74.3285 88.8641 74.29 88.9376 74.3075 89.0111C74.3251 89.0741 74.381 89.1196 74.4476 89.1196C74.4546 89.1196 74.4616 89.1196 74.4686 89.1196C75.4454 88.9656 77.2099 87.9363 78.4983 87.1835C78.9045 86.949 79.258 86.7389 79.5241 86.5989C81.0716 85.7761 82.8151 85.3525 84.5552 85.3805C84.9578 85.384 85.3499 85.4015 85.7386 85.4155C86.6873 85.4505 87.5871 85.4855 88.5569 85.384C90.5035 85.1739 91.3228 84.4527 92.7303 82.8562C92.7793 82.8002 92.7793 82.7126 92.7267 82.6601V82.6566Z" fill="black"/>
<path d="M82.9517 109.766C82.9517 109.766 82.9202 109.766 82.9167 109.766C73.8209 110.207 64.62 110.448 55.5697 110.487L55.3141 110.494C55.2651 110.494 55.2231 110.522 55.1951 110.56L52.9859 114.019C52.9544 114.068 52.9544 114.128 52.9859 114.173C53.0139 114.216 53.0594 114.24 53.1084 114.24C53.1154 114.24 53.1224 114.24 53.1294 114.24L82.9727 110.053C83.0462 110.042 83.1022 109.976 83.0952 109.899C83.0882 109.822 83.0252 109.766 82.9517 109.766Z" fill="black"/>
</svg>
