<svg width="180" height="180" viewBox="0 0 180 180" fill="none" xmlns="http://www.w3.org/2000/svg">
<rect width="180" height="180" fill="white"/>
<path d="M110.009 56.8079L85.3234 64.9209L59.5807 59.3338L31.6655 70.309L51.6667 130.755L87.6331 117.501L115.686 119.849L146.974 107.103L110.009 56.8079Z" fill="black" stroke="black" stroke-width="0.288" stroke-linecap="round" stroke-linejoin="round"/>
<path d="M61.2829 53.1323L32.6161 64.4439L52.6138 124.89L88.9406 110.984L117.391 113.647L148.68 100.901L111.711 50.6099L87.0291 58.7195L61.2829 53.1323Z" fill="white" stroke="black" stroke-width="0.288" stroke-linecap="round" stroke-linejoin="round"/>
<path d="M62.1065 54.8517L35.3445 65.4426L54.2337 121.644L87.9694 108.952L116.489 112.014L145.087 100.091L111.018 53.1323L88.0106 60.4938L62.1065 54.8517Z" stroke="black" stroke-width="0.288" stroke-linecap="round" stroke-linejoin="round"/>
<path d="M102.023 49.1582C100.238 49.1582 98.5603 50.2701 97.7297 52.0067C96.9232 53.6883 97.2252 55.6102 97.8292 57.3056C98.447 59.0455 99.2809 60.7546 100.139 62.3642C100.444 62.9373 100.76 63.5036 101.09 64.0595C101.155 64.1694 101.639 64.9484 101.886 65.3534C101.954 65.4632 102.112 65.4598 102.181 65.3534C102.953 64.0733 103.688 62.7589 104.367 61.417C105.445 59.2926 106.673 56.904 106.841 54.4296C106.865 54.0796 106.841 53.8016 106.78 53.4652C106.44 51.5502 105.126 49.9544 103.423 49.3915C102.97 49.2405 102.497 49.1651 102.023 49.1651V49.1582Z" fill="#00DAA1" stroke="black" stroke-width="0.288" stroke-linecap="round" stroke-linejoin="round"/>
<path d="M101.93 56.3412C103.199 56.3412 104.226 55.3133 104.226 54.0452C104.226 52.7772 103.199 51.7493 101.93 51.7493C100.662 51.7493 99.6345 52.7772 99.6345 54.0452C99.6345 55.3133 100.662 56.3412 101.93 56.3412Z" fill="white" stroke="#202124" stroke-width="0.288" stroke-linecap="round" stroke-linejoin="round"/>
<path d="M111.749 60.6618C111.993 62.2131 103.049 65.113 102.123 65.4081C102.147 65.3944 102.164 65.3738 102.181 65.3498C102.953 64.0663 103.688 62.7518 104.367 61.41C104.511 61.1285 104.655 60.8403 104.803 60.5485C107.415 59.8313 111.488 58.9939 111.749 60.6618Z" fill="black" stroke="black" stroke-width="0.288" stroke-linecap="round" stroke-linejoin="round"/>
<path d="M102.435 56.2896C101.199 56.5675 99.9673 55.792 99.6893 54.553C99.4079 53.3175 100.187 52.0855 101.422 51.8075C102.661 51.5261 103.89 52.3052 104.171 53.5406C104.449 54.7796 103.674 56.0081 102.435 56.2896Z" fill="#00DAA1" stroke="black" stroke-width="0.288" stroke-linecap="round" stroke-linejoin="round"/>
<path d="M102.435 56.2896C101.199 56.5675 99.9673 55.792 99.6893 54.553C99.4079 53.3175 100.187 52.0855 101.422 51.8075C102.661 51.5261 103.89 52.3052 104.171 53.5406C104.449 54.7796 103.674 56.0081 102.435 56.2896Z" fill="white" stroke="#202124" stroke-width="0.288" stroke-linecap="round" stroke-linejoin="round"/>
<path d="M61.2828 53.1323L88.9406 110.984" stroke="black" stroke-width="0.288" stroke-linecap="round" stroke-linejoin="round"/>
<path d="M117.391 113.647L87.0291 58.7195" stroke="black" stroke-width="0.288" stroke-linecap="round" stroke-linejoin="round"/>
<path d="M47.871 102.391C51.9755 100.482 55.2633 97.3045 57.9093 93.6804C60.6789 89.8881 62.5184 85.6223 64.9825 81.6618C66.6813 78.93 69.3307 78.0309 72.3473 79.2629C72.9822 79.5238 74.2006 80.1484 74.2006 80.1484C74.2006 80.1484 78.6003 83.2989 80.9752 84.2152C84.3762 85.5296 87.8596 85.8591 91.5043 86.0513C94.6891 86.2194 101.392 84.706 101.392 84.706C101.392 84.706 106.43 78.6967 107.765 75.0554C108.365 73.4184 109.234 71.3318 108.65 69.5781C107.981 67.5704 105.126 67.5018 103.749 68.8059C102.624 69.8732 102.294 71.6029 102.665 73.1095C103.036 74.6161 104.017 75.91 105.177 76.943C109.251 80.5808 114.872 81.6996 120.174 81.8746C121.986 81.933 123.802 81.8883 125.611 81.7305C127.261 81.5863 129.218 81.0887 130.673 80.2136" stroke="black" stroke-width="0.288" stroke-linecap="round" stroke-linejoin="round"/>
<path d="M61.5952 86.9058C59.8106 86.9058 58.1324 88.0177 57.3019 89.7542C56.4954 91.4359 56.7974 93.3578 57.4014 95.0531C58.0192 96.7931 58.8531 98.5022 59.7111 100.112C60.0165 100.685 60.3323 101.251 60.6617 101.807C60.7269 101.917 61.2108 102.696 61.4579 103.101C61.5265 103.211 61.6844 103.207 61.7531 103.101C62.5252 101.821 63.2597 100.506 63.9392 99.1645C65.0168 97.0402 66.2454 94.6516 66.4136 92.1772C66.4376 91.8271 66.4136 91.5491 66.3518 91.2128C66.0121 89.2978 64.6976 87.7019 62.9954 87.1391C62.5424 86.9881 62.0688 86.9126 61.5952 86.9126V86.9058Z" fill="#00DAA1" stroke="black" stroke-width="0.288" stroke-linecap="round" stroke-linejoin="round"/>
<path d="M61.4991 94.0921C62.7671 94.0921 63.795 93.0642 63.795 91.7962C63.795 90.5282 62.7671 89.5002 61.4991 89.5002C60.231 89.5002 59.2031 90.5282 59.2031 91.7962C59.2031 93.0642 60.231 94.0921 61.4991 94.0921Z" fill="white" stroke="#202124" stroke-width="0.288" stroke-linecap="round" stroke-linejoin="round"/>
<path d="M71.3247 101.237C71.5787 102.85 61.9247 103.169 61.6227 103.18C61.6707 103.176 61.7188 103.145 61.7497 103.097C62.5218 101.817 63.2563 100.503 63.9392 99.161C64.0422 98.9585 64.1451 98.7525 64.2481 98.5466C66.8392 98.8246 71.0604 99.5351 71.3247 101.237Z" fill="black" stroke="black" stroke-width="0.288" stroke-linecap="round" stroke-linejoin="round"/>
<path d="M62.0071 94.0373C60.7681 94.3187 59.5395 93.5431 59.2581 92.3042C58.9801 91.0653 59.7558 89.8366 60.9947 89.5587C62.2302 89.2772 63.4622 90.0529 63.7402 91.2918C64.0216 92.5273 63.2426 93.7593 62.0071 94.0373Z" fill="#00DAA1" stroke="black" stroke-width="0.288" stroke-linecap="round" stroke-linejoin="round"/>
<path d="M62.0071 94.0373C60.7681 94.3187 59.5395 93.5431 59.2581 92.3042C58.9801 91.0653 59.7558 89.8366 60.9947 89.5587C62.2302 89.2772 63.4622 90.0529 63.7402 91.2918C64.0216 92.5273 63.2426 93.7593 62.0071 94.0373Z" fill="white" stroke="#202124" stroke-width="0.288" stroke-linecap="round" stroke-linejoin="round"/>
<path d="M92.2799 81.6206C90.4953 81.6206 88.8171 82.7326 87.9866 84.4691C87.1801 86.1507 87.4821 88.0726 88.0861 89.768C88.7038 91.5079 89.5378 93.217 90.3958 94.8266C90.7012 95.3997 91.0169 95.966 91.3464 96.522C91.4116 96.6318 91.8955 97.4108 92.1426 97.8158C92.2113 97.9256 92.3691 97.9222 92.4378 97.8158C93.2099 96.5357 93.9444 95.2213 94.6239 93.8794C95.7015 91.755 96.9301 89.3664 97.0983 86.892C97.1223 86.542 97.0983 86.264 97.0365 85.9277C96.6968 84.0127 95.3823 82.4168 93.6801 81.854C93.2271 81.703 92.7535 81.6275 92.2799 81.6275V81.6206Z" fill="#00DAA1" stroke="black" stroke-width="0.288" stroke-linecap="round" stroke-linejoin="round"/>
<path d="M92.1838 88.8069C93.4518 88.8069 94.4797 87.779 94.4797 86.511C94.4797 85.243 93.4518 84.2151 92.1838 84.2151C90.9158 84.2151 89.8878 85.243 89.8878 86.511C89.8878 87.779 90.9158 88.8069 92.1838 88.8069Z" fill="white" stroke="#202124" stroke-width="0.288" stroke-linecap="round" stroke-linejoin="round"/>
<path d="M102.009 95.9489C102.263 97.5619 92.6094 97.8811 92.3074 97.8914C92.3554 97.8879 92.4035 97.8571 92.4344 97.809C93.2065 96.5289 93.941 95.2145 94.6239 93.8726C94.7269 93.6701 94.8298 93.4642 94.9328 93.2583C97.5239 93.5363 101.745 94.2467 102.009 95.9489Z" fill="black" stroke="black" stroke-width="0.288" stroke-linecap="round" stroke-linejoin="round"/>
<path d="M92.6918 88.7487C91.4528 89.0302 90.2242 88.2545 89.9428 87.0156C89.6648 85.7767 90.4404 84.5481 91.6794 84.2701C92.9149 83.9887 94.1469 84.7643 94.4249 86.0032C94.7063 87.2387 93.9272 88.4708 92.6918 88.7487Z" fill="#00DAA1" stroke="black" stroke-width="0.288" stroke-linecap="round" stroke-linejoin="round"/>
<path d="M92.6918 88.7487C91.4528 89.0302 90.2242 88.2545 89.9428 87.0156C89.6648 85.7767 90.4404 84.5481 91.6794 84.2701C92.9149 83.9887 94.1469 84.7643 94.4249 86.0032C94.7063 87.2387 93.9272 88.4708 92.6918 88.7487Z" fill="white" stroke="#202124" stroke-width="0.288" stroke-linecap="round" stroke-linejoin="round"/>
<path d="M79.8941 62.5254C78.1096 62.5254 76.4313 63.6373 75.6008 65.3739C74.7943 67.0555 75.0963 68.9774 75.7004 70.6727C76.3181 72.4127 77.1521 74.1218 78.01 75.7314C78.3155 76.3045 78.6312 76.8708 78.9607 77.4268C79.0259 77.5366 79.5098 78.3156 79.7569 78.7206C79.8255 78.8304 79.9834 78.827 80.052 78.7206C80.8242 77.4405 81.5587 76.126 82.2382 74.7842C83.3158 72.6598 84.5444 70.2712 84.7126 67.7968C84.7366 67.4467 84.7125 67.1688 84.6508 66.8325C84.311 64.9174 82.9966 63.3216 81.2944 62.7588C80.8414 62.6078 80.3678 62.5323 79.8941 62.5323V62.5254Z" fill="#FF676A" stroke="black" stroke-width="0.288" stroke-linecap="round" stroke-linejoin="round"/>
<path d="M79.8014 69.7118C81.0694 69.7118 82.0974 68.6838 82.0974 67.4158C82.0974 66.1478 81.0694 65.1199 79.8014 65.1199C78.5334 65.1199 77.5055 66.1478 77.5055 67.4158C77.5055 68.6838 78.5334 69.7118 79.8014 69.7118Z" fill="white" stroke="#202124" stroke-width="0.288" stroke-linecap="round" stroke-linejoin="round"/>
<path d="M89.627 76.8571C89.881 78.4701 80.2271 78.7893 79.925 78.7996C79.9731 78.7962 80.0211 78.7653 80.052 78.7172C80.8242 77.4371 81.5586 76.1227 82.2416 74.7808C82.3445 74.5783 82.4475 74.3724 82.5504 74.1665C85.1415 74.4445 89.3628 75.1549 89.627 76.8571Z" fill="black" stroke="black" stroke-width="0.288" stroke-linecap="round" stroke-linejoin="round"/>
<path d="M80.3094 69.6569C79.0705 69.9384 77.8419 69.1627 77.5605 67.9238C77.2825 66.6849 78.0581 65.4563 79.297 65.1783C80.5325 64.8969 81.7645 65.6725 82.0425 66.9114C82.3239 68.1469 81.5449 69.379 80.3094 69.6569Z" fill="#00DAA1" stroke="black" stroke-width="0.288" stroke-linecap="round" stroke-linejoin="round"/>
<path d="M80.3094 69.6569C79.0705 69.9384 77.8419 69.1627 77.5605 67.9238C77.2825 66.6849 78.0581 65.4563 79.297 65.1783C80.5325 64.8969 81.7645 65.6725 82.0425 66.9114C82.3239 68.1469 81.5449 69.379 80.3094 69.6569Z" fill="white" stroke="#202124" stroke-width="0.288" stroke-linecap="round" stroke-linejoin="round"/>
</svg>
