<svg width="180" height="180" viewBox="0 0 180 180" fill="none" xmlns="http://www.w3.org/2000/svg">
<rect width="180" height="180" fill="white"/>
<path d="M106.521 29.0854C104.491 28.7311 92.9218 29.794 87.488 43.3538C85.9913 47.0889 84.9449 50.8704 84.1502 54.7116C84.074 55.099 83.9945 55.4831 83.9217 55.8705C81.7263 67.268 81.6005 79.2052 78.5707 92.0166C74.819 107.871 66.4977 108.633 65.65 108.749C65.5937 108.755 65.5539 108.759 65.5539 108.759C65.3122 108.795 65.0738 108.795 64.842 108.818C64.4612 108.841 64.0771 108.851 63.7625 108.855C63.3188 108.855 62.8718 108.855 62.4248 108.838H62.4082C60.4645 108.808 59.3254 108.199 59.236 108.166C59.2327 108.166 59.2294 108.166 59.2294 108.163C60.7459 108.262 62.3519 107.795 63.0539 107.55C63.14 107.52 63.2162 107.494 63.2725 107.47C63.9711 107.199 64.6632 106.868 65.3089 106.487C66.6367 105.709 67.7791 104.653 68.746 103.46C72.2527 99.073 73.7759 93.3544 74.6501 87.9106C75.6799 81.4999 76.5044 75.0562 77.1203 68.5892C77.4548 65.066 77.9018 61.3474 78.5574 57.6686C78.7362 56.6652 78.9283 55.6652 79.1435 54.6718C79.7263 51.94 80.4449 49.2645 81.3422 46.7479C83.2495 41.3935 85.5111 36.2577 89.8556 32.4033C92.0741 30.4364 95.1569 28.996 98.2563 28.4C98.6802 28.3139 99.3126 28.2278 99.7729 28.1781C100.296 28.1185 100.783 28.092 101.309 28.0821C102.342 28.0655 103.369 28.1848 104.379 28.4C104.985 28.5291 105.574 28.7046 106.137 28.9265C106.266 28.9762 106.395 29.0291 106.521 29.0854Z" fill="black" stroke="black" stroke-width="0.288" stroke-linecap="round" stroke-linejoin="round"/>
<path d="M100.677 86.8079V88.192C100.677 88.3079 100.607 88.4138 100.498 88.4602L96.9617 89.937C96.7729 90.0165 96.561 89.8774 96.561 89.6688V88.4867L100.677 86.8079Z" fill="white" stroke="black" stroke-width="0.288" stroke-linecap="round" stroke-linejoin="round"/>
<path d="M81.7164 56.4765C81.7164 56.4765 82.2462 56.3771 82.6602 56.44C83.2198 56.5228 83.7496 56.748 84.2794 56.95C85.9748 57.5891 87.5708 58.5229 88.9218 59.7381C90.5411 61.1918 91.743 63.0759 92.5675 65.0792C93.4781 67.2846 94.3325 69.5064 94.9616 71.8111C95.0577 72.1687 95.1504 72.5263 95.2398 72.8839C96.0444 76.1621 96.561 79.5032 96.561 82.8841V88.4901L100.677 86.8113V86.2219C100.538 81.5298 100.737 76.8376 99.7266 72.2449C99.4021 70.7647 99.1736 69.2713 98.7365 67.8077C98.0444 65.4931 97.0676 63.2613 95.7133 61.2547C94.2298 59.0593 91.9748 57.0891 89.5476 55.9566C87.5675 55.0328 86.0741 55.3142 84.0377 55.8407C83.6668 55.9367 83.3125 56.0096 82.8588 56.1387C82.7661 56.1652 81.7131 56.4765 81.7131 56.4765H81.7164Z" fill="black" stroke="black" stroke-width="0.288" stroke-linecap="round" stroke-linejoin="round"/>
<path d="M96.561 86.0331C96.561 86.0331 96.0544 74.5959 101.823 63.2183C104.601 57.7381 108.048 52.3241 109.823 46.4002C110.952 42.6319 110.419 38.5358 108.392 35.0259C106.564 31.8603 104.061 30.0722 100.405 28.8503C99.72 28.6218 98.9749 28.4629 98.2531 28.3967C98.6769 28.3106 99.3093 28.2244 99.7696 28.1748C100.293 28.1152 100.78 28.0887 101.306 28.0821C102.339 28.0622 103.366 28.1847 104.376 28.3967C104.982 28.5258 105.568 28.7013 106.134 28.9231C107.472 29.4463 108.694 30.2212 109.78 31.198C111.939 33.145 113.439 35.7511 114.184 38.5491C114.614 40.1716 114.826 41.8504 114.816 43.5293C114.79 49.5757 111.521 54.6122 108.561 59.652C108.415 59.9003 108.273 60.1454 108.127 60.3937C107.488 61.4964 106.856 62.599 106.253 63.7215C103.915 68.0925 102.329 72.7614 101.468 77.6456C101.273 78.7615 101.111 79.8807 100.975 81.0065C100.756 82.8575 100.667 84.7251 100.667 86.5894V86.8079L96.551 88.4867V86.0331H96.561Z" fill="#00DAA1" stroke="black" stroke-width="0.288" stroke-linecap="round" stroke-linejoin="round"/>
<path d="M112.919 93.3743V117.954C112.919 124.335 113.949 130.673 115.965 136.722L117.015 139.875L90.1238 151.948L89.0741 148.795C87.0575 142.742 86.0277 136.405 86.0277 130.027V104.593L112.919 93.3743Z" fill="white" stroke="black" stroke-width="0.288" stroke-linecap="round" stroke-linejoin="round"/>
<path d="M94.4417 98.0497C94.4417 98.0497 94.8225 93.0397 99.2332 92.2615C101.217 91.9105 102.352 93.1224 103.005 94.5562L110.882 91.3277C111.853 90.9304 112.915 91.6423 112.915 92.692V93.3741L103.746 97.1987L101.154 98.2814L86.0277 104.593V102.497C86.0277 101.897 86.3886 101.358 86.9449 101.133L94.445 98.0497H94.4417Z" fill="white" stroke="black" stroke-width="0.288" stroke-linecap="round" stroke-linejoin="round"/>
<path d="M98.869 95.9141C99.2402 95.9141 99.5412 95.3625 99.5412 94.6822C99.5412 94.0019 99.2402 93.4504 98.869 93.4504C98.4977 93.4504 98.1968 94.0019 98.1968 94.6822C98.1968 95.3625 98.4977 95.9141 98.869 95.9141Z" fill="black"/>
<path d="M106.417 118.644C108.843 112.858 107.654 106.843 103.759 105.21C99.8653 103.577 94.7415 106.944 92.3151 112.731C89.8887 118.517 91.0784 124.532 94.9726 126.164C98.8667 127.797 103.991 124.43 106.417 118.644Z" stroke="black" stroke-width="0.288" stroke-linecap="round" stroke-linejoin="round"/>
<path d="M106.584 118.298C105.203 116.312 103.707 115.725 103.707 115.725C96.0014 113.305 92.4517 124.017 92.4517 124.017C92.4517 124.017 94.2033 127.083 97.8292 126.56C101.455 126.037 104.962 122.639 106.588 118.298H106.584Z" fill="#2480EF" stroke="black" stroke-width="0.288" stroke-linecap="round" stroke-linejoin="round"/>
<path d="M101.529 112.218C102.225 110.557 101.884 108.83 100.765 108.362C99.6473 107.893 98.1762 108.859 97.4796 110.52C96.783 112.182 97.1247 113.908 98.2429 114.377C99.361 114.846 100.832 113.88 101.529 112.218Z" fill="#2480EF" stroke="black" stroke-width="0.288" stroke-linecap="round" stroke-linejoin="round"/>
<path d="M90.1239 151.951L88.1702 151.398L87.6801 150.004C85.4682 143.693 84.339 137.053 84.339 130.368V103.682C84.339 102.831 84.8423 102.06 85.6238 101.715L86.839 101.182C86.3457 101.427 86.0277 101.937 86.0277 102.5V130.03C86.0277 136.408 87.0543 142.746 89.0742 148.799L89.2761 149.405L90.1239 151.951Z" fill="black" stroke="black" stroke-width="0.288" stroke-linecap="round" stroke-linejoin="round"/>
<path d="M98.8392 88.2681H98.9517C99.3855 88.2681 99.7365 88.6191 99.7365 89.0528V94.192C99.7365 94.6258 99.3855 94.9768 98.9517 94.9768H98.8392C98.7299 94.9768 98.6405 94.8874 98.6405 94.7781V88.4701C98.6405 88.3608 98.7299 88.2714 98.8392 88.2714V88.2681Z" fill="white" stroke="black" stroke-width="0.288" stroke-linecap="round" stroke-linejoin="round"/>
<path d="M88.253 55.5029C86.8556 55.1751 85.6072 55.4334 84.0377 55.8407C83.6668 55.9367 83.3125 56.0096 82.8588 56.1387C82.8224 56.1486 82.6569 56.1983 82.4582 56.2579C82.4516 56.2579 82.4449 56.2612 82.4416 56.2612C82.3125 56.2976 82.1866 56.3307 82.0674 56.3672C82.0045 56.387 81.9449 56.4036 81.882 56.4268C81.8224 56.4466 81.776 56.4599 81.7462 56.4698C81.7396 56.4731 81.7363 56.4731 81.7297 56.4731C77.3389 57.8572 73.2958 60.2116 69.862 63.3639C68.6236 64.4997 67.4679 65.7249 66.405 67.0262C60.5473 74.1985 57.1863 83.5529 57.0141 92.798C56.938 96.9902 57.5672 101.848 60.2758 105.222C61.4877 106.729 64.5739 108.712 65.7593 108.735C65.1666 108.815 64.342 108.851 63.7626 108.855C62.3387 108.861 60.8553 108.841 59.5374 108.298C55.9512 106.825 53.9016 102.901 53.0307 99.3213C51.8784 94.5795 52.0174 89.7152 52.8817 84.9404C54.1996 77.6356 57.0506 70.874 61.7327 65.0759C65.7792 60.0659 71.3753 55.9168 77.8422 54.844C78.3455 54.7612 78.8522 54.695 79.3621 54.6486C82.0708 54.4036 85.8026 54.7115 88.253 55.5029Z" fill="#00DAA1" stroke="black" stroke-width="0.288" stroke-linecap="round" stroke-linejoin="round"/>
</svg>
