<?xml version="1.0" standalone="no"?>
<!DOCTYPE svg PUBLIC "-//W3C//DTD SVG 1.1//EN" "http://www.w3.org/Graphics/SVG/1.1/DTD/svg11.dtd">
<svg xmlns="http://www.w3.org/2000/svg" width="171" height="91" viewBox="0 0 171 91" fill="none" class="logo mr-8" data-v-36a63d12=""><g clip-path="url(#clip0_369_641)" data-v-36a63d12=""><path d="M0.0631659 90.7792C0.0428426 90.4248 0.00219608 90.0704 0.00219608 89.7159C0.000163753 60.1968 0.000163753 30.6776 0.00219608 1.15849C0.00219608 -0.123544 -0.0933233 0.00202652 1.14436 0.00202652C30.2615 1.19233e-06 59.3787 1.19233e-06 88.4958 0.00202652C89.2112 0.00202652 89.9245 0.00607718 90.6399 0.0101278C90.8696 0.0101278 91.0098 0.125572 91.0281 0.350383C91.0484 0.607599 91.0504 0.866841 91.0504 1.12608C91.0525 3.32964 91.0504 5.5332 91.0504 7.73675C91.0504 34.9227 91.0504 62.1087 91.0484 89.2947C91.0484 91.0587 91.2334 90.7914 89.5567 90.7934C71.6844 90.7995 53.8101 90.7975 35.9378 90.7934C35.5557 90.7934 35.1635 90.8623 34.7672 90.7023C34.7672 90.4694 34.7672 90.2446 34.7672 90.0197C34.5639 89.5985 34.7347 89.1894 34.8261 88.7863C36.3504 82.0237 37.8848 75.2632 39.4415 68.5067C41.2767 60.5512 43.0408 52.5816 44.9126 44.6342C45.2499 43.2043 45.4023 43.0747 46.89 43.0706C49.5544 43.0625 52.2249 42.939 54.8811 43.0969C59.7851 43.3886 64.6871 43.1759 69.5891 43.265C70.9406 43.2894 71.0991 43.4676 70.782 44.7496C70.4406 46.1329 70.1825 47.5385 69.7882 48.9076C69.4814 49.9689 69.1664 50.2079 68.0587 50.2464C67.4409 50.2666 66.8231 50.2666 66.2073 50.2524C65.5488 50.2362 65.1749 50.5218 65.0428 51.1659C64.868 52.0226 64.6688 52.8752 64.4453 53.7198C64.3111 54.2241 64.4005 54.5563 65.0143 54.5401C66.8312 54.4894 68.6542 54.6616 70.465 54.4287C71.469 54.299 72.477 54.3416 73.483 54.3537C74.2085 54.3618 74.6191 54.1249 74.7674 53.3633C75.6779 48.6889 76.566 44.0104 77.5395 39.3481C77.6798 38.6736 77.4928 38.3516 76.7774 38.3941C76.5843 38.4063 76.3872 38.3941 76.1921 38.3941C64.5936 38.3941 52.9951 38.3941 41.3966 38.3941C39.7281 38.3941 39.7261 38.3962 39.3745 40.0569C35.8768 56.6018 32.2918 73.1285 28.7962 89.6734C28.723 90.0218 28.6539 90.3721 28.4812 90.6921C28.408 90.7975 28.3084 90.8623 28.1824 90.8886C19.0918 90.8987 10.0033 90.8906 0.912678 90.8886C0.628153 90.8866 0.325336 90.9757 0.0631659 90.7792Z" fill="#544941" data-v-36a63d12=""/> <path d="M28.353 90.5768C28.3734 89.793 28.6152 89.0477 28.7758 88.2923C30.5764 79.8082 32.3953 71.3281 34.2102 62.846C35.895 54.9655 37.5717 47.0829 39.2768 39.2084C39.5471 37.9608 39.2565 38.0864 40.6059 38.0864C52.7267 38.0844 64.8475 38.0844 76.9683 38.0925C77.3077 38.0925 77.6796 37.9588 77.9886 38.2302C77.9438 38.5482 77.9113 38.8702 77.8504 39.1841C77.2468 42.2647 76.6371 45.3452 76.0274 48.4237C75.6636 50.2647 75.2998 52.1057 74.934 53.9467C74.8059 54.5969 74.8019 54.5989 74.1048 54.6212C70.8571 54.7164 67.6095 54.8116 64.3618 54.9047C63.9533 54.9169 63.8944 54.8581 63.9858 54.4632C64.3008 53.1083 64.6219 51.7533 64.9552 50.4024C65.0731 49.9245 65.1056 49.9042 65.6239 49.9001C66.5018 49.89 67.3778 49.8981 68.2557 49.8961C68.4834 49.8961 68.711 49.89 68.9366 49.8779C69.1114 49.8677 69.2414 49.7847 69.2983 49.6085C69.3369 49.485 69.3877 49.3634 69.4182 49.2379C69.8308 47.5386 70.2413 45.8414 70.6478 44.1421C70.6844 43.9862 70.7027 43.8262 70.7352 43.6459C70.4263 43.4394 70.095 43.5244 69.7881 43.5224C65.758 43.5042 61.7299 43.4981 57.6998 43.4778C54.0599 43.4596 50.4221 43.4272 46.7822 43.4009C46.6196 43.3988 46.457 43.3988 46.2944 43.3988C45.4754 43.4049 45.4795 43.4049 45.2904 44.2292C43.9552 50.0662 42.6179 55.9012 41.2847 61.7382C39.5633 69.2785 37.844 76.8208 36.1246 84.3611C35.7283 86.0968 35.3361 87.8325 34.9357 89.5662C34.8992 89.7221 34.824 89.8659 34.765 90.0178C34.7061 90.0887 34.6146 90.1495 34.5943 90.2305C34.5191 90.5282 34.322 90.6133 34.0415 90.6032C33.8261 90.5951 33.6086 90.6031 33.3912 90.6052C32.8302 90.8037 32.2266 90.6194 31.6617 90.7895C31.1333 90.8016 30.6028 90.7935 30.0744 90.7956C29.5013 90.7247 28.8855 90.9778 28.353 90.5768Z" fill="white" data-v-36a63d12=""/> <path d="M150.811 49.3837C150.811 50.5807 150.829 51.7797 150.805 52.9766C150.782 54.0906 150.502 55.1539 150.014 56.1544C149.122 57.9832 147.636 58.9959 145.639 59.324C144.464 59.5164 143.31 59.4678 142.167 59.162C140.464 58.7063 139.251 57.6592 138.499 56.0774C138.019 55.0708 137.753 53.9994 137.739 52.8895C137.706 50.366 137.721 47.8404 137.719 45.3168C137.719 45.2216 137.729 45.1224 137.747 45.0292C137.776 44.8854 137.873 44.8145 138.015 44.7963C138.048 44.7923 138.08 44.7842 138.111 44.7842C139.149 44.7821 140.188 44.7761 141.226 44.7862C141.582 44.7902 141.67 44.8915 141.686 45.2601C141.696 45.487 141.69 45.7138 141.69 45.9406C141.69 47.8181 141.68 49.6956 141.696 51.571C141.702 52.1847 141.761 52.7984 141.824 53.408C141.879 53.9285 142.064 54.4146 142.352 54.8541C142.771 55.4901 143.352 55.8445 144.131 55.8728C145.236 55.9133 145.994 55.4657 146.433 54.4409C146.756 53.6875 146.866 52.8875 146.866 52.0713C146.866 49.9994 146.866 47.9295 146.868 45.8576C146.87 44.689 146.767 44.7842 147.99 44.7801C148.768 44.7781 149.549 44.774 150.327 44.7842C150.756 44.7902 150.825 44.8591 150.829 45.3067C150.837 46.6657 150.831 48.0247 150.831 49.3837C150.823 49.3837 150.817 49.3837 150.811 49.3837Z" fill="#6F6D6D" data-v-36a63d12=""/> <path d="M103.911 59.488C102.269 59.4212 100.336 58.929 98.5131 58.0176C98.1453 57.8333 98.1249 57.7685 98.2916 57.4222C98.7285 56.5189 99.1716 55.6196 99.6207 54.7224C99.7935 54.3781 99.8768 54.3538 100.226 54.5462C101.08 55.0201 101.972 55.3968 102.913 55.6662C103.547 55.8485 104.189 55.893 104.84 55.8525C105.175 55.8323 105.496 55.7614 105.614 55.3847C105.712 55.0708 105.531 54.7548 105.098 54.5563C104.685 54.37 104.254 54.2242 103.826 54.0784C103.212 53.8697 102.59 53.6875 101.976 53.4748C101.36 53.2621 100.783 52.9705 100.243 52.6039C99.2895 51.9538 98.8139 51.0404 98.7428 49.9062C98.5903 47.4819 99.9622 45.5942 102.348 44.9218C103.368 44.6342 104.407 44.6099 105.437 44.7679C106.793 44.9765 108.059 45.4869 109.286 46.0884C109.52 46.2039 109.567 46.3315 109.453 46.5522C109.006 47.415 108.557 48.2758 108.1 49.1325C107.925 49.4586 107.837 49.4829 107.48 49.2905C106.878 48.9664 106.254 48.6971 105.606 48.4864C105.112 48.3264 104.61 48.1867 104.082 48.213C103.919 48.2211 103.757 48.2211 103.596 48.2495C103.208 48.3183 102.933 48.5411 102.899 48.8307C102.854 49.2034 103.063 49.4464 103.374 49.5983C103.665 49.7381 103.968 49.8576 104.273 49.9629C105.039 50.2241 105.815 50.4631 106.581 50.7244C107.167 50.9229 107.726 51.1842 108.244 51.5204C109.16 52.1158 109.727 52.9239 109.898 54.0297C110.02 54.8196 109.973 55.5852 109.77 56.3366C109.478 57.4222 108.789 58.2161 107.791 58.7407C106.701 59.3158 105.529 59.5022 103.911 59.488Z" fill="#6F6D6D" data-v-36a63d12=""/> <path d="M111.752 52.0652C111.752 49.9609 111.752 47.8566 111.752 45.7523C111.752 45.5578 111.754 45.3634 111.758 45.169C111.764 44.9462 111.863 44.8024 112.101 44.7902C112.264 44.7821 112.426 44.7781 112.587 44.7781C115.412 44.7781 118.235 44.7781 121.06 44.7781C121.222 44.7781 121.385 44.7781 121.547 44.7842C121.775 44.7943 121.909 44.9077 121.915 45.1406C121.923 45.4323 121.921 45.7239 121.923 46.0135C121.923 46.5644 121.929 47.1133 121.921 47.6642C121.913 48.2252 121.895 48.2373 121.293 48.2515C121.033 48.2576 120.773 48.2535 120.515 48.2535C119.184 48.2535 117.853 48.2515 116.521 48.2556C116.328 48.2556 116.131 48.2596 115.942 48.2961C115.869 48.3102 115.784 48.4095 115.757 48.4885C115.719 48.608 115.717 48.7437 115.719 48.8713C115.743 50.5604 115.481 50.3092 117.139 50.3254C118.275 50.3376 119.411 50.3234 120.547 50.3336C120.936 50.3376 120.99 50.3943 120.997 50.7974C121.007 51.5427 121.007 52.286 120.997 53.0313C120.99 53.4688 120.94 53.5153 120.468 53.5194C119.332 53.5295 118.196 53.5234 117.06 53.5234C116.865 53.5234 116.67 53.5194 116.475 53.5234C115.733 53.5376 115.727 53.5417 115.717 54.2931C115.713 54.6819 115.717 55.0708 115.723 55.4576C115.727 55.6946 115.869 55.806 116.093 55.808C116.515 55.8161 116.936 55.8161 117.359 55.8161C118.657 55.8161 119.956 55.8161 121.255 55.8161C121.417 55.8161 121.58 55.8181 121.742 55.8222C121.976 55.8283 122.102 55.9518 122.106 56.1827C122.112 56.604 122.112 57.0232 122.112 57.4445C122.112 57.9306 122.118 58.4166 122.104 58.9007C122.096 59.2085 122.013 59.2754 121.679 59.2936C121.517 59.3017 121.354 59.2997 121.192 59.2997C118.334 59.2997 115.479 59.2997 112.621 59.2997C112.426 59.2997 112.231 59.2936 112.038 59.2815C111.837 59.2693 111.766 59.1275 111.76 58.9533C111.75 58.6941 111.75 58.4349 111.75 58.1776C111.75 56.1422 111.752 54.1027 111.752 52.0652Z" fill="#6F6D6D" data-v-36a63d12=""/> <path d="M133.317 54.1674C134.306 54.7588 135.252 55.3239 136.195 55.889C136.398 56.0105 136.43 56.1928 136.331 56.3892C136.034 56.9786 135.607 57.4626 135.081 57.8576C134.048 58.6333 132.882 59.0849 131.614 59.3097C127.273 60.0794 124.116 57.0576 123.216 53.8717C122.084 49.8697 124.724 45.6428 128.766 44.8773C130.203 44.6059 131.616 44.6545 132.996 45.1264C134.323 45.58 135.416 46.3618 136.172 47.5689C136.294 47.7654 136.288 47.9233 136.087 48.0651C135.189 48.7011 134.294 49.3411 133.394 49.9811C133.288 49.8677 133.201 49.811 133.164 49.7279C132.607 48.4499 130.506 47.9558 129.228 48.4175C128.492 48.6849 127.929 49.1568 127.573 49.8454C126.823 51.2955 126.773 52.772 127.559 54.2181C128.724 56.3568 131.658 56.4864 133.061 54.4854C133.113 54.4105 133.179 54.3396 133.317 54.1674Z" fill="#6F6D6D" data-v-36a63d12=""/> <path d="M166.98 51.9842C166.98 49.9426 166.98 47.9031 166.98 45.8616C166.98 45.6348 166.982 45.4079 166.984 45.1811C166.986 44.9603 167.076 44.7943 167.316 44.7922C168.419 44.7841 169.525 44.7841 170.628 44.7882C170.86 44.7902 170.976 44.9401 170.988 45.1629C171 45.3897 170.998 45.6165 170.998 45.8434C170.998 49.9892 170.998 54.1351 170.998 58.2809C170.998 58.5078 170.996 58.7346 170.986 58.9614C170.974 59.1964 170.83 59.2997 170.604 59.3017C169.533 59.3037 168.46 59.3078 167.389 59.2997C167.078 59.2976 167.003 59.2065 166.986 58.8845C166.976 58.6576 166.98 58.4308 166.98 58.204C166.98 56.13 166.98 54.0581 166.98 51.9842Z" fill="#6F6D6D" data-v-36a63d12=""/> <path d="M147.708 67.9033C147.175 67.4455 146.696 67.1215 146.155 66.8906C144.883 66.3478 143.562 66.3438 142.231 66.5524C141.816 66.6172 141.424 66.7893 141.072 67.0384C140.16 67.6845 139.792 68.9504 140.21 69.9853C140.363 70.364 140.621 70.6395 140.96 70.8501C141.322 71.0749 141.71 71.2349 142.121 71.3443C143.092 71.6056 144.064 71.8608 145.039 72.1078C145.669 72.2678 146.289 72.4562 146.887 72.7114C147.336 72.9038 147.759 73.1428 148.124 73.4729C148.415 73.7362 148.659 74.0339 148.823 74.3965C149.616 76.1301 148.958 78.1798 147.303 79.1256C146.553 79.5529 145.732 79.7393 144.889 79.8203C142.613 80.039 140.497 79.5874 138.617 78.2304C138.485 78.1352 138.355 78.036 138.239 77.9246C138.142 77.8314 138.095 77.6998 138.17 77.5742C138.353 77.2724 138.479 76.9302 138.794 76.6952C138.9 76.7722 139.005 76.8431 139.103 76.922C140.845 78.3378 142.855 78.7651 145.043 78.52C145.531 78.4654 145.992 78.3114 146.429 78.0866C147.994 77.2826 147.996 74.9777 146.521 74.1717C146.149 73.9691 145.771 73.7848 145.362 73.6734C144.423 73.4162 143.48 73.1772 142.546 72.9079C141.891 72.7195 141.231 72.5352 140.607 72.2719C139.003 71.5995 138.381 70.4106 138.619 68.6952C138.814 67.2815 139.589 66.3154 140.847 65.726C142.149 65.1144 143.533 65.0131 144.944 65.2157C146.088 65.3797 147.141 65.7827 148.047 66.5159C148.338 66.7509 148.362 66.8622 148.181 67.1762C148.055 67.403 147.903 67.6096 147.708 67.9033Z" fill="#6F6D6D" data-v-36a63d12=""/> <path d="M135.772 69.7119C135.772 70.7792 135.774 71.8486 135.772 72.9159C135.77 73.7949 135.628 74.6557 135.4 75.5023C134.591 78.5018 132.295 80.0714 129.025 79.8324C128.606 79.802 128.185 79.7271 127.781 79.6177C126.252 79.2066 125.145 78.279 124.436 76.8673C123.826 75.6562 123.562 74.3539 123.535 73.0233C123.486 70.6293 123.517 68.2334 123.515 65.8374C123.515 65.7402 123.507 65.6389 123.535 65.5478C123.562 65.4627 123.617 65.3473 123.686 65.323C124.031 65.2055 124.391 65.2318 124.74 65.3068C124.805 65.321 124.881 65.4485 124.889 65.5296C124.915 65.7868 124.917 66.046 124.917 66.3053C124.919 68.2476 124.913 70.1898 124.921 72.1321C124.925 73.1043 125.007 74.0704 125.242 75.0182C125.376 75.5549 125.578 76.0653 125.856 76.5433C126.441 77.5479 127.295 78.198 128.439 78.441C129.242 78.6112 130.051 78.6112 130.854 78.4349C132.071 78.1696 132.949 77.4547 133.536 76.3691C133.878 75.7352 134.089 75.0527 134.191 74.3478C134.296 73.6126 134.378 72.8734 134.372 72.124C134.357 70.1493 134.368 68.1746 134.365 66.1999C134.365 65.1994 134.327 65.242 135.323 65.2602C135.691 65.2663 135.772 65.3473 135.774 65.7301C135.782 67.0567 135.776 68.3853 135.776 69.7119C135.774 69.7119 135.772 69.7119 135.772 69.7119Z" fill="#6F6D6D" data-v-36a63d12=""/> <path d="M112.396 72.4704C112.396 70.4309 112.396 68.3894 112.396 66.3498C112.396 66.0906 112.4 65.8314 112.412 65.5741C112.421 65.3817 112.551 65.2845 112.725 65.2703C112.951 65.2521 113.181 65.2501 113.406 65.2582C113.754 65.2724 113.837 65.3635 113.855 65.7443C113.868 66.0035 113.859 66.2628 113.859 66.522C113.859 70.117 113.859 73.7119 113.859 77.3069C113.859 77.5985 113.855 77.8902 113.878 78.1798C113.892 78.3519 114.002 78.4775 114.193 78.4836C114.453 78.4937 114.711 78.4998 114.971 78.4998C117.018 78.5018 119.064 78.4998 121.109 78.4998C121.369 78.4998 121.629 78.4978 121.887 78.5079C122.109 78.516 122.249 78.6254 122.257 78.8643C122.257 78.8968 122.259 78.9292 122.261 78.9616C122.273 79.6765 122.271 79.7433 121.527 79.7413C118.735 79.7352 115.941 79.7393 113.148 79.7373C112.986 79.7373 112.823 79.7312 112.662 79.7109C112.522 79.6947 112.423 79.6056 112.414 79.4618C112.398 79.2046 112.394 78.9454 112.392 78.6861C112.396 76.6162 112.396 74.5443 112.396 72.4704Z" fill="#6F6D6D" data-v-36a63d12=""/> <path d="M98.7957 88.5717C99.3484 88.8795 99.883 89.1712 100.487 89.3211C100.871 89.4162 101.255 89.4547 101.643 89.4183C101.832 89.4 102.027 89.3433 102.198 89.2583C102.706 89.0071 102.759 88.4117 102.312 88.0714C102.049 87.873 101.74 87.7737 101.43 87.6765C100.873 87.5023 100.318 87.3221 99.7691 87.1276C98.9664 86.8441 98.4258 86.3236 98.3933 85.4345C98.3587 84.4846 98.7408 83.7332 99.5964 83.2674C100.119 82.9838 100.692 82.8542 101.283 82.8724C102.106 82.8987 102.885 83.1134 103.598 83.5327C103.862 83.6886 103.905 83.8142 103.765 84.0917C103.635 84.3489 103.48 84.596 103.322 84.8755C102.913 84.7053 102.535 84.5352 102.147 84.3894C101.812 84.2638 101.466 84.1848 101.1 84.2031C100.834 84.2152 100.584 84.2679 100.356 84.4056C99.8443 84.7134 99.8179 85.3615 100.316 85.6815C100.503 85.801 100.724 85.878 100.938 85.9469C101.338 86.0785 101.747 86.1879 102.149 86.3135C102.397 86.3904 102.647 86.4653 102.883 86.5666C104.181 87.1216 104.374 87.9985 104.139 89.1732C103.992 89.9003 103.444 90.3236 102.767 90.5666C102.245 90.755 101.696 90.8218 101.137 90.7955C100.145 90.7469 99.2204 90.4816 98.3689 89.9732C98.1758 89.8578 98.1067 89.6978 98.2307 89.4871C98.4095 89.1813 98.4969 88.8228 98.7957 88.5717Z" fill="#6F6D6D" data-v-36a63d12=""/> <path d="M149.037 83.7737C148.801 84.1909 148.614 84.523 148.401 84.8998C147.899 84.6587 147.446 84.4177 146.946 84.2942C146.495 84.1828 146.051 84.1484 145.608 84.3205C145.269 84.4522 145.084 84.6932 145.078 85.0557C145.072 85.3798 145.22 85.6248 145.521 85.7443C145.881 85.8881 146.253 86.0015 146.621 86.1271C147.11 86.2932 147.62 86.4167 148.09 86.6253C149.004 87.0304 149.34 87.636 149.303 88.6284C149.269 89.5803 148.789 90.2081 147.915 90.5403C147.332 90.7631 146.72 90.8218 146.096 90.7854C144.995 90.7206 143.968 90.3459 143.227 89.718C143.351 89.4608 143.47 89.1975 143.603 88.9383C143.659 88.8248 143.741 88.7236 143.808 88.6183C144.113 88.5879 144.285 88.8188 144.511 88.9221C145.135 89.2097 145.771 89.4365 146.47 89.4324C146.73 89.4304 146.986 89.4081 147.228 89.2927C147.783 89.0294 147.864 88.3894 147.36 88.0532C147.123 87.8952 146.842 87.7919 146.57 87.6927C146.204 87.561 145.828 87.4598 145.458 87.3403C145.243 87.2694 145.029 87.1945 144.818 87.1114C144.111 86.8339 143.584 86.4046 143.519 85.5782C143.448 84.6729 143.696 83.9134 144.481 83.3868C145.037 83.0142 145.671 82.8562 146.328 82.8724C147.283 82.8947 148.179 83.1418 149.037 83.7737Z" fill="#6F6D6D" data-v-36a63d12=""/> <path d="M105.372 86.8198C105.372 85.8173 105.37 84.8147 105.372 83.8102C105.372 83.6157 105.374 83.4213 105.395 83.2289C105.409 83.0892 105.502 82.998 105.643 82.9757C105.771 82.9555 105.901 82.9474 106.029 82.9474C107.36 82.9454 108.689 82.9454 110.02 82.9474C110.15 82.9474 110.278 82.9595 110.408 82.9737C110.555 82.9899 110.64 83.0811 110.654 83.2249C110.671 83.3849 110.681 83.5469 110.677 83.7089C110.671 84.1646 110.62 84.2274 110.185 84.2335C109.472 84.2456 108.758 84.2375 108.043 84.2395C107.783 84.2395 107.525 84.2416 107.264 84.2476C107.029 84.2537 106.915 84.3894 106.911 84.6163C106.905 85.0051 106.907 85.392 106.911 85.7808C106.915 86.0198 107.055 86.1251 107.285 86.1251C108.031 86.1271 108.776 86.1231 109.524 86.1312C110.175 86.1393 110.219 86.194 110.195 86.8704C110.193 86.9029 110.193 86.9353 110.193 86.9677C110.195 87.2066 110.059 87.3241 109.835 87.3302C109.415 87.3403 108.992 87.3383 108.569 87.3403C108.146 87.3423 107.726 87.3423 107.303 87.3444C107.079 87.3464 106.917 87.4396 106.915 87.6786C106.909 88.1626 106.915 88.6487 106.931 89.1327C106.935 89.2725 107.039 89.3677 107.183 89.3778C107.441 89.394 107.701 89.3981 107.961 89.4001C108.772 89.4041 109.583 89.3981 110.394 89.4082C110.717 89.4122 110.786 89.4953 110.799 89.8173C110.805 90.0117 110.803 90.2062 110.79 90.3986C110.78 90.5869 110.66 90.6841 110.48 90.7044C110.384 90.7145 110.286 90.7246 110.189 90.7246C108.793 90.7267 107.399 90.7327 106.002 90.7226C105.425 90.7186 105.378 90.6679 105.374 90.1211C105.366 89.0193 105.372 87.9196 105.372 86.8198Z" fill="#6F6D6D" data-v-36a63d12=""/> <path d="M137.138 86.7408C137.138 85.639 137.134 84.5372 137.142 83.4354C137.144 83.0466 137.225 82.9554 137.581 82.9534C139.077 82.9453 140.57 82.9494 142.066 82.9534C142.294 82.9534 142.424 83.077 142.428 83.3119C142.43 83.4091 142.434 83.5063 142.434 83.6035C142.434 84.1848 142.406 84.2233 141.849 84.2314C141.166 84.2415 140.483 84.2334 139.802 84.2354C139.574 84.2354 139.347 84.2294 139.119 84.2395C138.76 84.2557 138.682 84.3367 138.67 84.7175C138.66 85.0415 138.662 85.3656 138.672 85.6896C138.684 86.0481 138.757 86.117 139.158 86.121C139.938 86.1311 140.719 86.119 141.497 86.1311C141.873 86.1372 141.936 86.2162 141.95 86.601C141.952 86.6658 141.952 86.7306 141.952 86.7955C141.944 87.241 141.881 87.322 141.463 87.3301C140.877 87.3423 140.292 87.3342 139.709 87.3342C139.481 87.3342 139.253 87.3362 139.026 87.3443C138.788 87.3524 138.686 87.4942 138.674 87.715C138.672 87.7474 138.668 87.7798 138.67 87.8122C138.703 89.6593 138.379 89.3636 140.164 89.3919C140.847 89.402 141.53 89.394 142.21 89.4021C142.442 89.4041 142.562 89.5357 142.562 89.7707C142.562 89.9327 142.57 90.0947 142.564 90.2567C142.548 90.6152 142.471 90.7084 142.084 90.7104C140.589 90.7185 139.095 90.7185 137.599 90.7084C137.233 90.7064 137.146 90.6091 137.144 90.2345C137.134 89.0739 137.138 87.9074 137.138 86.7408Z" fill="#6F6D6D" data-v-36a63d12=""/> <path d="M134.935 85.2927C134.681 85.1975 134.599 84.9646 134.437 84.8127C133.461 83.9114 131.978 84.0492 131.191 85.1206C130.504 86.0542 130.508 87.555 131.197 88.4948C132.047 89.6533 133.559 89.7586 134.571 88.7256C134.683 88.6122 134.77 88.4745 134.88 88.3348C135.252 88.4279 135.542 88.6325 135.835 88.8229C136.024 88.9464 136.044 89.1165 135.92 89.3231C135.75 89.6046 135.524 89.8376 135.256 90.0219C133.62 91.15 131.38 91.1095 129.986 89.2482C128.842 87.7231 128.854 85.7606 129.99 84.2963C131.031 82.9555 132.951 82.5038 134.559 83.2228C135.008 83.4233 135.388 83.7251 135.693 84.116C135.993 84.5008 135.985 84.5818 135.573 84.8775C135.361 85.0274 135.14 85.1611 134.935 85.2927Z" fill="#6F6D6D" data-v-36a63d12=""/> <path d="M118.379 83.0324C118.774 82.8724 119.194 82.9474 119.607 82.9656C119.826 82.9757 119.914 83.1641 119.983 83.3565C120.375 84.4846 120.774 85.6127 121.172 86.7388C121.377 87.318 121.582 87.8952 121.796 88.4704C121.812 88.515 121.889 88.5616 121.94 88.5656C121.987 88.5676 122.064 88.5211 122.08 88.4785C122.42 87.5367 122.753 86.5929 123.084 85.6491C123.353 84.8876 123.625 84.1261 123.877 83.3605C123.972 83.0689 124.147 82.9392 124.446 82.9494C124.737 82.9595 125.029 82.9575 125.32 82.9737C125.375 82.9757 125.428 83.0344 125.482 83.0668C125.515 83.2694 125.43 83.4456 125.36 83.6258C124.546 85.7686 123.731 87.9135 122.916 90.0563C122.869 90.1778 122.816 90.2952 122.771 90.4147C122.694 90.6234 122.536 90.7084 122.324 90.7185C122.292 90.7206 122.259 90.7226 122.227 90.7226C121.129 90.7246 121.239 90.8036 120.887 89.8719C120.121 87.8486 119.349 85.8274 118.579 83.8041C118.483 83.5631 118.345 83.3362 118.379 83.0324Z" fill="#6F6D6D" data-v-36a63d12=""/> <path d="M127.972 86.8117C127.972 87.9458 127.978 89.078 127.97 90.2122C127.966 90.6335 127.882 90.7064 127.447 90.7226C127.222 90.7307 126.992 90.7266 126.767 90.7064C126.594 90.6902 126.468 90.5848 126.452 90.3985C126.439 90.2365 126.439 90.0745 126.439 89.9124C126.439 87.8729 126.437 85.8334 126.439 83.7939C126.439 83.5995 126.439 83.4051 126.464 83.2126C126.482 83.0749 126.59 82.9858 126.726 82.9676C126.886 82.9473 127.049 82.9453 127.212 82.9453C127.945 82.9433 127.966 82.9595 127.97 83.7048C127.978 84.7397 127.972 85.7747 127.972 86.8117Z" fill="#6F6D6D" data-v-36a63d12=""/> <path d="M31.619 90.6213C32.2104 90.6152 32.8018 90.6112 33.3912 90.6051C33.3445 90.6476 33.3018 90.7226 33.2489 90.7307C32.5458 90.8198 31.8426 90.9717 31.1394 90.9737C21.0814 90.9899 11.0234 90.9859 0.965421 90.9798C0.656507 90.9798 0.306947 91.0973 0.0610352 90.7793C7.88346 90.7773 15.7059 90.7752 23.5283 90.7712C25.1176 90.7712 26.7089 90.757 28.2982 90.7509C28.8591 90.6497 29.4261 90.7287 29.9871 90.7043C30.5337 90.6638 31.0845 90.7914 31.619 90.6213Z" fill="#DDDCDC" data-v-36a63d12=""/> <path d="M12.9849 64.0369C13.1068 63.2693 13.2206 62.5037 13.3527 61.7422C13.7348 59.5427 14.123 57.3432 14.5091 55.1437C14.5254 55.0485 14.5416 54.9513 14.564 54.8581C14.6697 54.4085 14.7916 54.3558 15.1269 54.6495C15.8586 55.2915 16.5821 55.9437 17.3076 56.5918C18.2262 57.4141 19.157 58.2242 20.0574 59.0647C20.4618 59.4435 20.8662 59.6318 21.4475 59.5609C22.1852 59.4678 22.9392 59.4961 23.6851 59.4617C24.055 59.4435 24.124 59.2875 23.8944 58.9655C23.4798 58.3862 23.051 57.8151 22.6242 57.244C20.4516 54.3336 18.277 51.4252 16.1045 48.5148C15.9683 48.3325 15.8383 48.1462 15.698 47.9679C15.5436 47.7735 15.5232 47.5791 15.5862 47.334C15.8281 46.3943 16.0435 45.4464 16.2752 44.5046C16.7223 42.6818 17.1715 40.8591 17.6206 39.0363C17.6673 38.8479 17.7364 38.6636 17.771 38.4732C17.8198 38.2059 17.9681 38.0823 18.2344 38.0864C18.462 38.0884 18.6896 38.0844 18.9172 38.0844C24.6687 38.1026 30.4202 38.1208 36.1697 38.137C37.4338 38.1411 37.2651 38.1228 37.0334 39.2752C36.4908 41.971 35.9075 44.6606 35.3405 47.3523C35.314 47.4798 35.2937 47.6074 35.2571 47.731C35.1555 48.0874 35.0824 48.1482 34.7226 48.1725C34.5601 48.1847 34.3975 48.1826 34.2349 48.1867C32.5135 48.2292 30.7921 48.2738 29.0707 48.3143C28.772 48.3224 28.6561 48.2009 28.7191 47.895C28.9386 46.8176 29.1764 45.7421 29.404 44.6667C29.4853 44.2879 29.5687 43.9072 29.6378 43.5264C29.6642 43.3786 29.5626 43.2793 29.4223 43.2591C29.2638 43.2348 29.0992 43.2327 28.9366 43.2368C27.4103 43.2672 25.884 43.3016 24.3578 43.334C24.1952 43.3381 24.0326 43.3462 23.87 43.3421C23.5895 43.336 23.4757 43.494 23.4229 43.7472C23.2847 44.4115 23.1363 45.0758 22.988 45.7381C22.8335 46.4328 22.677 47.1274 22.5144 47.8201C22.4352 48.1583 22.486 48.4398 22.7339 48.7112C24.0895 50.1978 25.4369 51.6905 26.7722 53.1933C27.0547 53.5113 27.3595 53.6409 27.7863 53.6409C29.6378 53.6368 31.4912 53.6632 33.3427 53.6733C34.5661 53.6794 34.3426 53.6854 34.1373 54.6819C33.5215 57.6612 32.859 60.6303 32.2127 63.6015C32.1863 63.727 32.1517 63.8546 32.105 63.9741C32.0542 64.1017 31.9485 64.1847 31.8103 64.1929C31.5827 64.207 31.3551 64.209 31.1295 64.207C25.378 64.1888 19.6265 64.1706 13.8771 64.1483C13.5905 64.1483 13.2938 64.203 12.9849 64.0369Z" fill="white" data-v-36a63d12=""/> <path d="M47.8841 61.5761C48.9308 62.5017 49.8758 63.3382 50.8188 64.1746C50.9895 64.3245 51.1562 64.4784 51.3249 64.6323C52.1154 65.3453 52.1154 65.3493 53.1336 65.2663C53.5523 65.2318 53.9689 65.1772 54.3734 65.1326C54.4607 64.8308 54.2494 64.685 54.1213 64.5128C52.4183 62.2242 50.7111 59.9397 49.006 57.6551C48.9084 57.5255 48.819 57.3898 48.7113 57.2682C48.4532 56.9746 48.4166 56.6748 48.5182 56.2839C48.9287 54.7204 49.2925 53.1447 49.6848 51.5751C49.8087 51.0768 49.9632 50.5847 50.1055 50.0905C50.6359 49.8637 51.1928 49.9872 51.7334 49.9872C55.3387 49.9852 58.942 50.0054 62.5474 50.0176C62.775 50.0176 63.0026 50.0176 63.2302 50.0237C63.8155 50.0419 63.8704 50.1047 63.7586 50.6394C63.4863 51.9376 63.2058 53.2338 62.9315 54.53C62.7709 55.2895 62.6104 56.049 62.4539 56.8105C62.4071 57.0353 62.275 57.1467 62.0535 57.1528C61.3727 57.169 60.6898 57.1771 60.009 57.1994C59.3932 57.2196 58.7774 57.2601 58.1616 57.2824C57.869 57.2925 57.7531 57.1528 57.8161 56.8531C57.9624 56.1563 58.1149 55.4617 58.2754 54.769C58.3547 54.4267 58.4136 54.0885 58.4299 53.6773C57.8263 53.6773 57.2796 53.6753 56.7309 53.6773C56.0155 53.6814 55.3021 53.6854 54.5888 53.7016C54.1722 53.7118 54.1152 53.7422 54.0319 54.0966C53.7982 55.0708 53.5889 56.051 53.3673 57.0293C53.3186 57.248 53.4283 57.4019 53.5604 57.5498C53.9039 57.9386 54.2494 58.3255 54.5949 58.7123C55.1578 59.3402 55.7309 59.9579 56.2797 60.5979C56.552 60.9138 56.8528 61.0637 57.2857 61.0556C58.4217 61.0374 59.5578 61.0617 60.6959 61.0738C61.7426 61.086 61.8442 60.9746 61.5881 62.1331C61.1613 64.0592 60.7488 65.9893 60.3281 67.9154C60.1817 68.5878 60.1797 68.5979 59.5111 68.5979C57.0113 68.5939 54.5095 68.5898 52.0098 68.5736C50.4835 68.5635 48.9572 68.5311 47.433 68.5088C47.2704 68.5068 47.1078 68.5027 46.9472 68.4886C46.7582 68.4724 46.6444 68.361 46.6688 68.1726C46.7237 67.7554 46.7928 67.3422 46.8639 66.927C47.1423 65.3007 47.4208 63.6764 47.7053 62.05C47.7175 61.9326 47.7866 61.8171 47.8841 61.5761Z" fill="white" data-v-36a63d12=""/> <path d="M30.0663 90.7651C29.479 90.7611 28.8896 90.755 28.3022 90.7509C28.3104 90.6902 28.3287 90.6335 28.3531 90.5788C28.9282 90.597 29.5013 90.6132 30.0765 90.6315C30.1476 90.6659 30.17 90.6983 30.1435 90.7266C30.1191 90.7509 30.0927 90.7651 30.0663 90.7651Z" fill="#A2A0A0" data-v-36a63d12=""/> <path d="M30.0664 90.7651C30.0766 90.7206 30.0806 90.676 30.0766 90.6314C30.5907 90.6294 31.107 90.6254 31.6211 90.6234C31.5114 90.757 31.361 90.7894 31.1984 90.7874C30.8204 90.7793 30.4424 90.7712 30.0664 90.7651Z" fill="#BCBBBB" data-v-36a63d12=""/> <path d="M165.308 58.6212C164.505 57.2136 163.692 55.8141 162.887 54.4085C162.66 54.0116 162.658 53.9933 163.005 53.6814C164.338 52.4824 164.893 50.9776 164.658 49.2257C164.377 47.1518 163.206 45.734 161.229 45.0171C160.648 44.8064 160.022 44.7781 159.402 44.7781C157.616 44.7781 155.829 44.7781 154.043 44.7801C153.848 44.7801 153.653 44.7862 153.459 44.8024C153.275 44.8186 153.165 44.932 153.155 45.1163C153.142 45.3431 153.142 45.57 153.142 45.7968C153.142 49.9751 153.142 54.1533 153.142 58.3316C153.142 58.526 153.138 58.7204 153.148 58.9149C153.167 59.2187 153.244 59.3017 153.577 59.3037C154.616 59.3118 155.656 59.3139 156.695 59.3058C157.073 59.3017 157.152 59.2247 157.156 58.844C157.166 57.8718 157.16 56.9017 157.162 55.9295C157.162 55.6703 157.162 55.4111 157.183 55.1538C157.197 54.9716 157.313 54.8703 157.502 54.8602C157.534 54.8581 157.567 54.8561 157.599 54.8541C158.713 54.7812 158.715 54.7791 159.274 55.7473C159.873 56.7842 160.481 57.8192 161.064 58.8663C161.243 59.1883 161.467 59.328 161.837 59.3179C162.55 59.2977 163.265 59.3118 163.981 59.3118C164.493 59.3118 165.005 59.3098 165.491 59.3078C165.611 58.9736 165.414 58.8075 165.308 58.6212ZM160.503 50.6414C160.327 51.0991 160.008 51.3746 159.477 51.3624C158.833 51.3482 158.189 51.3584 157.542 51.3543C157.317 51.3543 157.175 51.247 157.17 51.01C157.164 50.5928 157.168 50.1736 157.168 49.7563C157.166 49.7563 157.164 49.7563 157.162 49.7563C157.162 49.4343 157.154 49.1123 157.164 48.7923C157.179 48.3427 157.244 48.2677 157.652 48.2576C158.201 48.2454 158.75 48.2373 159.296 48.2576C160.024 48.2839 160.402 48.6181 160.601 49.3168C160.733 49.7786 160.668 50.2161 160.503 50.6414Z" fill="#6F6D6D" data-v-36a63d12=""/> <path d="M105.596 65.2622C103.842 65.2298 102.088 65.2541 100.334 65.2561C100.204 65.2561 100.074 65.2663 99.9461 65.2804C99.8018 65.2966 99.7083 65.3878 99.6981 65.5275C99.6799 65.7847 99.6738 66.044 99.6738 66.3032C99.6717 68.3751 99.6738 70.4491 99.6738 72.521C99.6738 74.5605 99.6738 76.602 99.6738 78.6415C99.6738 78.9008 99.6758 79.16 99.688 79.4172C99.6961 79.6015 99.7977 79.7129 99.9867 79.723C100.182 79.7332 100.377 79.7392 100.57 79.7332C101.019 79.723 101.076 79.6785 101.078 79.2289C101.086 77.9327 101.082 76.6385 101.082 75.3423C101.082 74.3843 101.025 74.4086 102.058 74.4106C103.259 74.4126 104.462 74.4167 105.663 74.4086C107.167 74.3964 108.362 73.7888 109.197 72.525C109.709 71.7493 109.976 70.8886 110.01 69.965C110.102 67.4374 108.118 65.3068 105.596 65.2622ZM108.086 71.6805C107.567 72.5878 106.803 73.1185 105.72 73.1164C104.326 73.1144 102.932 73.1205 101.535 73.1124C101.153 73.1103 101.09 73.0395 101.086 72.6466C101.078 71.6764 101.084 70.7063 101.084 69.7362H101.086C101.086 68.7984 101.08 67.8607 101.09 66.923C101.092 66.609 101.186 66.5118 101.495 66.5118C102.921 66.5058 104.35 66.4754 105.775 66.524C106.98 66.5645 108.077 67.5164 108.415 68.7701C108.683 69.7686 108.612 70.761 108.086 71.6805Z" fill="#6F6D6D" data-v-36a63d12=""/> <path d="M118.079 90.3783C117.934 90.1251 117.784 89.876 117.631 89.6249C117.329 89.1266 117.024 88.6284 116.723 88.1282C116.611 87.9418 116.599 87.7656 116.804 87.6259C116.884 87.5712 116.963 87.5104 117.032 87.4436C117.841 86.6861 118.119 85.5945 117.735 84.6081C117.392 83.7271 116.617 82.9312 115.343 82.9433C114.433 82.9514 113.524 82.9372 112.614 82.9474C112.024 82.9534 111.99 82.9858 111.986 83.5408C111.978 84.6102 111.984 85.6795 111.984 86.7489C111.984 87.8183 111.98 88.8877 111.986 89.957C111.99 90.6983 112.02 90.7226 112.746 90.7226C112.876 90.7226 113.006 90.7226 113.136 90.7104C113.353 90.6902 113.504 90.591 113.508 90.3499C113.512 89.9287 113.516 89.5074 113.516 89.0861C113.514 87.9864 113.475 88.112 114.518 88.0836C114.896 88.0735 115.117 88.2294 115.292 88.5393C115.532 88.9626 115.798 89.3697 116.054 89.7828C116.686 90.8036 116.735 90.8279 117.922 90.7145C118.119 90.6983 118.184 90.5646 118.079 90.3783ZM115.967 86.5221C115.851 86.6395 115.709 86.7246 115.542 86.7266C114.963 86.7368 114.384 86.7408 113.805 86.7368C113.612 86.7347 113.528 86.593 113.526 86.4168C113.52 86.0947 113.524 85.7747 113.524 85.4527C113.524 85.4527 113.524 85.4527 113.522 85.4527C113.522 85.1631 113.514 84.8735 113.524 84.5859C113.532 84.357 113.672 84.2436 113.9 84.2436C114.351 84.2436 114.804 84.2193 115.254 84.2517C115.786 84.2902 116.152 84.5757 116.304 85.1023C116.459 85.637 116.367 86.117 115.967 86.5221Z" fill="#6F6D6D" data-v-36a63d12=""/></g> <defs data-v-36a63d12=""><clipPath id="clip0_369_641" data-v-36a63d12=""><rect width="171" height="91" fill="white" data-v-36a63d12=""/></clipPath></defs></svg>